<?xml version="1.0" encoding="UTF-8"?>
<svg xmlns="http://www.w3.org/2000/svg" version="1.1" xmlns:xlink="http://www.w3.org/1999/xlink" viewBox="0 0 950 950">
  <!-- Generator: Adobe Illustrator 29.1.0, SVG Export Plug-In . SVG Version: 2.1.0 Build 142)  -->
  <defs>
    <style>
      .st0 {
        fill: #042d3a;
      }

      .st1 {
        fill: #f39d7d;
      }

      .st2 {
        fill: #f9ecec;
      }

      .st3 {
        fill: #f7ba95;
      }

      .st4, .st5 {
        fill: none;
      }

      .st4, .st5, .st6 {
        stroke-miterlimit: 10;
      }

      .st4, .st6 {
        stroke: #412d16;
        stroke-width: 1.1px;
      }

      .st7 {
        fill: #657aa8;
      }

      .st8 {
        fill: #412d16;
      }

      .st9 {
        fill: #f3ece6;
      }

      .st10 {
        fill: #6b392f;
      }

      .st11 {
        fill: #a75b48;
      }

      .st12 {
        fill: #bab8bc;
        filter: url(#drop-shadow-1);
      }

      .st13 {
        fill: #02506d;
      }

      .st14 {
        fill: #ea9878;
      }

      .st15 {
        fill: #d3c8c1;
      }

      .st16 {
        fill: #381d1f;
      }

      .st17 {
        font-family: MyriadPro-Regular, 'Myriad Pro';
        font-size: 12px;
      }

      .st18 {
        fill: #1c1d28;
      }

      .st5 {
        filter: url(#drop-shadow-2);
        stroke: #c2c2c1;
        stroke-width: 13px;
      }

      .st19 {
        fill: #d98468;
      }

      .st6 {
        fill: #756146;
      }
    </style>
    <filter id="drop-shadow-1" x="11.6" y="3.4" width="946.8" height="947" filterUnits="userSpaceOnUse">
      <feOffset dx="4" dy="4"/>
      <feGaussianBlur result="blur" stdDeviation="5"/>
      <feFlood flood-color="#000" flood-opacity=".5"/>
      <feComposite in2="blur" operator="in"/>
      <feComposite in="SourceGraphic"/>
    </filter>
    <filter id="drop-shadow-2" x="11.6" y="3.4" width="946.8" height="947" filterUnits="userSpaceOnUse">
      <feOffset dx="4" dy="4"/>
      <feGaussianBlur result="blur1" stdDeviation="5"/>
      <feFlood flood-color="#000" flood-opacity=".5"/>
      <feComposite in2="blur1" operator="in"/>
      <feComposite in="SourceGraphic"/>
    </filter>
  </defs>
  <g id="image">
    <circle class="st12" cx="481" cy="472.9" r="458.4"/>
    <g>
      <g id="_x3C_Radial_Repeat_x3E_">
        <polygon points="477.9 908.8 479.9 857.8 481.9 908.8 477.9 908.8 477.9 908.8"/>
      </g>
      <g id="_x3C_Radial_Repeat_x3E_1" data-name="_x3C_Radial_Repeat_x3E_">
        <polygon points="431.7 906.2 439.1 855.6 435.7 906.6 431.7 906.2 431.7 906.2"/>
      </g>
      <g id="_x3C_Radial_Repeat_x3E_2" data-name="_x3C_Radial_Repeat_x3E_">
        <polygon points="386.1 898.7 398.7 849.2 390 899.6 386.1 898.7 386.1 898.7"/>
      </g>
      <g id="_x3C_Radial_Repeat_x3E_3" data-name="_x3C_Radial_Repeat_x3E_">
        <polygon points="341.5 886.6 359.1 838.6 345.3 887.8 341.5 886.6 341.5 886.6"/>
      </g>
      <g id="_x3C_Radial_Repeat_x3E_4" data-name="_x3C_Radial_Repeat_x3E_">
        <polygon points="298.3 869.8 320.9 824 302 871.4 298.3 869.8 298.3 869.8"/>
      </g>
      <g id="_x3C_Radial_Repeat_x3E_5" data-name="_x3C_Radial_Repeat_x3E_">
        <polygon points="257.2 848.6 284.5 805.4 260.7 850.6 257.2 848.6 257.2 848.6"/>
      </g>
      <g id="_x3C_Radial_Repeat_x3E_6" data-name="_x3C_Radial_Repeat_x3E_">
        <polygon points="218.5 823.2 250.2 783.1 221.8 825.6 218.5 823.2 218.5 823.2"/>
      </g>
      <g id="_x3C_Radial_Repeat_x3E_7" data-name="_x3C_Radial_Repeat_x3E_">
        <polygon points="182.7 794 218.4 757.4 185.7 796.6 182.7 794 182.7 794"/>
      </g>
      <g id="_x3C_Radial_Repeat_x3E_8" data-name="_x3C_Radial_Repeat_x3E_">
        <polygon points="150.2 761.1 189.4 728.4 152.8 764.1 150.2 761.1 150.2 761.1"/>
      </g>
      <g id="_x3C_Radial_Repeat_x3E_9" data-name="_x3C_Radial_Repeat_x3E_">
        <polygon points="121.2 725 163.7 696.6 123.6 728.2 121.2 725 121.2 725"/>
      </g>
      <g id="_x3C_Radial_Repeat_x3E_10" data-name="_x3C_Radial_Repeat_x3E_">
        <polygon points="96.2 686.1 141.4 662.3 98.2 689.6 96.2 686.1 96.2 686.1"/>
      </g>
      <g id="_x3C_Radial_Repeat_x3E_11" data-name="_x3C_Radial_Repeat_x3E_">
        <polygon points="75.4 644.8 122.8 625.9 77 648.4 75.4 644.8 75.4 644.8"/>
      </g>
      <g id="_x3C_Radial_Repeat_x3E_12" data-name="_x3C_Radial_Repeat_x3E_">
        <polygon points="59 601.5 108.2 587.7 60.2 605.3 59 601.5 59 601.5"/>
      </g>
      <g id="_x3C_Radial_Repeat_x3E_13" data-name="_x3C_Radial_Repeat_x3E_">
        <polygon points="47.2 556.8 97.6 548.1 48.1 560.7 47.2 556.8 47.2 556.8"/>
      </g>
      <g id="_x3C_Radial_Repeat_x3E_14" data-name="_x3C_Radial_Repeat_x3E_">
        <polygon points="40.2 511.1 91.2 507.7 40.6 515 40.2 511.1 40.2 511.1"/>
      </g>
      <g id="_x3C_Radial_Repeat_x3E_15" data-name="_x3C_Radial_Repeat_x3E_">
        <polygon points="38 464.9 89 466.9 38 468.9 38 464.9 38 464.9"/>
      </g>
      <g id="_x3C_Radial_Repeat_x3E_16" data-name="_x3C_Radial_Repeat_x3E_">
        <polygon points="40.6 418.7 91.2 426 40.2 422.6 40.6 418.7 40.6 418.7"/>
      </g>
      <g id="_x3C_Radial_Repeat_x3E_17" data-name="_x3C_Radial_Repeat_x3E_">
        <polygon points="48.1 373 97.6 385.6 47.2 376.9 48.1 373 48.1 373"/>
      </g>
      <g id="_x3C_Radial_Repeat_x3E_18" data-name="_x3C_Radial_Repeat_x3E_">
        <polygon points="60.2 328.4 108.2 346.1 59 332.2 60.2 328.4 60.2 328.4"/>
      </g>
      <g id="_x3C_Radial_Repeat_x3E_19" data-name="_x3C_Radial_Repeat_x3E_">
        <polygon points="77 285.3 122.8 307.9 75.4 288.9 77 285.3 77 285.3"/>
      </g>
      <g id="_x3C_Radial_Repeat_x3E_20" data-name="_x3C_Radial_Repeat_x3E_">
        <polygon points="98.2 244.1 141.4 271.4 96.2 247.6 98.2 244.1 98.2 244.1"/>
      </g>
      <g id="_x3C_Radial_Repeat_x3E_21" data-name="_x3C_Radial_Repeat_x3E_">
        <polygon points="123.6 205.5 163.7 237.1 121.2 208.7 123.6 205.5 123.6 205.5"/>
      </g>
      <g id="_x3C_Radial_Repeat_x3E_22" data-name="_x3C_Radial_Repeat_x3E_">
        <polygon points="152.8 169.6 189.4 205.3 150.2 172.6 152.8 169.6 152.8 169.6"/>
      </g>
      <g id="_x3C_Radial_Repeat_x3E_23" data-name="_x3C_Radial_Repeat_x3E_">
        <polygon points="185.7 137.1 218.4 176.4 182.7 139.8 185.7 137.1 185.7 137.1"/>
      </g>
      <g id="_x3C_Radial_Repeat_x3E_24" data-name="_x3C_Radial_Repeat_x3E_">
        <polygon points="221.8 108.1 250.2 150.6 218.5 110.5 221.8 108.1 221.8 108.1"/>
      </g>
      <g id="_x3C_Radial_Repeat_x3E_25" data-name="_x3C_Radial_Repeat_x3E_">
        <polygon points="260.7 83.1 284.5 128.3 257.2 85.1 260.7 83.1 260.7 83.1"/>
      </g>
      <g id="_x3C_Radial_Repeat_x3E_26" data-name="_x3C_Radial_Repeat_x3E_">
        <polygon points="302 62.3 320.9 109.7 298.3 63.9 302 62.3 302 62.3"/>
      </g>
      <g id="_x3C_Radial_Repeat_x3E_27" data-name="_x3C_Radial_Repeat_x3E_">
        <polygon points="345.3 45.9 359.1 95.1 341.5 47.1 345.3 45.9 345.3 45.9"/>
      </g>
      <g id="_x3C_Radial_Repeat_x3E_28" data-name="_x3C_Radial_Repeat_x3E_">
        <polygon points="390 34.1 398.7 84.5 386.1 35 390 34.1 390 34.1"/>
      </g>
      <g id="_x3C_Radial_Repeat_x3E_29" data-name="_x3C_Radial_Repeat_x3E_">
        <polygon points="435.7 27.1 439.1 78.1 431.7 27.5 435.7 27.1 435.7 27.1"/>
      </g>
      <g id="_x3C_Radial_Repeat_x3E_30" data-name="_x3C_Radial_Repeat_x3E_">
        <polygon points="481.9 24.9 479.9 75.9 477.9 24.9 481.9 24.9 481.9 24.9"/>
      </g>
      <g id="_x3C_Radial_Repeat_x3E_31" data-name="_x3C_Radial_Repeat_x3E_">
        <polygon points="528.1 27.5 520.8 78.1 524.1 27.1 528.1 27.5 528.1 27.5"/>
      </g>
      <g id="_x3C_Radial_Repeat_x3E_32" data-name="_x3C_Radial_Repeat_x3E_">
        <polygon points="573.8 35 561.2 84.5 569.9 34.1 573.8 35 573.8 35"/>
      </g>
      <g id="_x3C_Radial_Repeat_x3E_33" data-name="_x3C_Radial_Repeat_x3E_">
        <polygon points="618.4 47.1 600.7 95.1 614.6 45.9 618.4 47.1 618.4 47.1"/>
      </g>
      <g id="_x3C_Radial_Repeat_x3E_34" data-name="_x3C_Radial_Repeat_x3E_">
        <polygon points="661.5 63.9 638.9 109.7 657.9 62.3 661.5 63.9 661.5 63.9"/>
      </g>
      <g id="_x3C_Radial_Repeat_x3E_35" data-name="_x3C_Radial_Repeat_x3E_">
        <polygon points="702.6 85.1 675.4 128.3 699.2 83.1 702.6 85.1 702.6 85.1"/>
      </g>
      <g id="_x3C_Radial_Repeat_x3E_36" data-name="_x3C_Radial_Repeat_x3E_">
        <polygon points="741.3 110.5 709.7 150.6 738.1 108.1 741.3 110.5 741.3 110.5"/>
      </g>
      <g id="_x3C_Radial_Repeat_x3E_37" data-name="_x3C_Radial_Repeat_x3E_">
        <polygon points="777.1 139.8 741.5 176.4 774.2 137.1 777.1 139.8 777.1 139.8"/>
      </g>
      <g id="_x3C_Radial_Repeat_x3E_38" data-name="_x3C_Radial_Repeat_x3E_">
        <polygon points="809.7 172.6 770.4 205.3 807 169.6 809.7 172.6 809.7 172.6"/>
      </g>
      <g id="_x3C_Radial_Repeat_x3E_39" data-name="_x3C_Radial_Repeat_x3E_">
        <polygon points="838.7 208.7 796.2 237.1 836.3 205.5 838.7 208.7 838.7 208.7"/>
      </g>
      <g id="_x3C_Radial_Repeat_x3E_40" data-name="_x3C_Radial_Repeat_x3E_">
        <polygon points="863.7 247.6 818.5 271.4 861.7 244.1 863.7 247.6 863.7 247.6"/>
      </g>
      <g id="_x3C_Radial_Repeat_x3E_41" data-name="_x3C_Radial_Repeat_x3E_">
        <polygon points="884.5 288.9 837 307.9 882.9 285.3 884.5 288.9 884.5 288.9"/>
      </g>
      <g id="_x3C_Radial_Repeat_x3E_42" data-name="_x3C_Radial_Repeat_x3E_">
        <polygon points="900.9 332.2 851.7 346.1 899.6 328.4 900.9 332.2 900.9 332.2"/>
      </g>
      <g id="_x3C_Radial_Repeat_x3E_43" data-name="_x3C_Radial_Repeat_x3E_">
        <polygon points="912.6 376.9 862.3 385.6 911.8 373 912.6 376.9 912.6 376.9"/>
      </g>
      <g id="_x3C_Radial_Repeat_x3E_44" data-name="_x3C_Radial_Repeat_x3E_">
        <polygon points="919.7 422.6 868.7 426 919.3 418.7 919.7 422.6 919.7 422.6"/>
      </g>
      <g id="_x3C_Radial_Repeat_x3E_45" data-name="_x3C_Radial_Repeat_x3E_">
        <polygon points="921.9 468.9 870.8 466.9 921.9 464.9 921.9 468.9 921.9 468.9"/>
      </g>
      <g id="_x3C_Radial_Repeat_x3E_46" data-name="_x3C_Radial_Repeat_x3E_">
        <polygon points="919.3 515 868.7 507.7 919.7 511.1 919.3 515 919.3 515"/>
      </g>
      <g id="_x3C_Radial_Repeat_x3E_47" data-name="_x3C_Radial_Repeat_x3E_">
        <polygon points="911.8 560.7 862.3 548.1 912.7 556.8 911.8 560.7 911.8 560.7"/>
      </g>
      <g id="_x3C_Radial_Repeat_x3E_48" data-name="_x3C_Radial_Repeat_x3E_">
        <polygon points="899.6 605.3 851.7 587.7 900.9 601.5 899.6 605.3 899.6 605.3"/>
      </g>
      <g id="_x3C_Radial_Repeat_x3E_49" data-name="_x3C_Radial_Repeat_x3E_">
        <polygon points="882.9 648.4 837 625.9 884.5 644.8 882.9 648.4 882.9 648.4"/>
      </g>
      <g id="_x3C_Radial_Repeat_x3E_50" data-name="_x3C_Radial_Repeat_x3E_">
        <polygon points="861.7 689.6 818.5 662.3 863.7 686.1 861.7 689.6 861.7 689.6"/>
      </g>
      <g id="_x3C_Radial_Repeat_x3E_51" data-name="_x3C_Radial_Repeat_x3E_">
        <polygon points="836.3 728.2 796.2 696.6 838.7 725 836.3 728.2 836.3 728.2"/>
      </g>
      <g id="_x3C_Radial_Repeat_x3E_52" data-name="_x3C_Radial_Repeat_x3E_">
        <polygon points="807 764.1 770.4 728.4 809.7 761.1 807 764.1 807 764.1"/>
      </g>
      <g id="_x3C_Radial_Repeat_x3E_53" data-name="_x3C_Radial_Repeat_x3E_">
        <polygon points="774.2 796.6 741.5 757.4 777.1 794 774.2 796.6 774.2 796.6"/>
      </g>
      <g id="_x3C_Radial_Repeat_x3E_54" data-name="_x3C_Radial_Repeat_x3E_">
        <polygon points="738.1 825.6 709.7 783.1 741.3 823.2 738.1 825.6 738.1 825.6"/>
      </g>
      <g id="_x3C_Radial_Repeat_x3E_55" data-name="_x3C_Radial_Repeat_x3E_">
        <polygon points="699.2 850.6 675.4 805.4 702.6 848.6 699.2 850.6 699.2 850.6"/>
      </g>
      <g id="_x3C_Radial_Repeat_x3E_56" data-name="_x3C_Radial_Repeat_x3E_">
        <polygon points="657.9 871.4 638.9 824 661.5 869.8 657.9 871.4 657.9 871.4"/>
      </g>
      <g id="_x3C_Radial_Repeat_x3E_57" data-name="_x3C_Radial_Repeat_x3E_">
        <polygon points="614.6 887.8 600.7 838.6 618.4 886.6 614.6 887.8 614.6 887.8"/>
      </g>
      <g id="_x3C_Radial_Repeat_x3E_58" data-name="_x3C_Radial_Repeat_x3E_">
        <polygon points="569.9 899.6 561.2 849.2 573.8 898.7 569.9 899.6 569.9 899.6"/>
      </g>
      <g id="_x3C_Radial_Repeat_x3E_59" data-name="_x3C_Radial_Repeat_x3E_">
        <polygon points="524.1 906.6 520.8 855.6 528.1 906.2 524.1 906.6 524.1 906.6"/>
      </g>
    </g>
    <circle class="st5" cx="481" cy="472.9" r="458.4"/>
    <g id="image1" data-name="image">
      <rect class="st7" x="385.3" y="433.3" width="125.3" height="78.9" rx="12.4" ry="12.4"/>
      <path class="st3" d="M528.9,377.3c9.4-1.9,18.8-3.1,28.3-4.1,4.4,35.1,2.4,72.9-.8,90,3.4,8.9,2.5,32,1.6,34.7-.9,2.8-3,1.9-3.8.8-.8-1.1-1.4-12.3-1.4-12.3,0,0-.7,14.3-1.2,16-1,3.8-4,1.6-4.7-.4-.7-2-1.2-14.2-1.2-14.2-.5,1.4,0,17.2-.7,19.1-.7,1.9-3.6,2.6-4.7-.4-.7-1.6-1.4-19.6-1.4-19.6,0,0-1.5,12.8-1.9,14.2-.5,1.4-2.1,1.6-3.5-.3-1.5-1.9-1-17.6-1-17.6-2.7,4.8-5.5,5.6-6.9,4.3-1.3-1.3,3.7-9.6,5.7-15.1,2-5.5,3.8-13.3,3.8-13.3,0,0,0,0,0,0-2.5-21.2-5.6-57.2-8.1-67-1-3.7-2.6-8.4-4.4-13.3,0,0,0,0,0,0,2.1-.5,4.2-1,6.3-1.4Z"/>
      <path class="st14" d="M553.5,351.3s0,0,0,0c0,0,0,0,0,0,.6,2.8,1.2,5.6,1.7,8.5,0,0,0,0,0,0,.3,1.4.5,2.8.7,4.3,0,0,0,.1,0,.2.5,2.9.9,5.8,1.3,8.8,0,0,0,0,0,0h0c-9.5,1-18.9,2.2-28.3,4.1-2.1.4-4.2.9-6.3,1.4,0,0,0,0,0,0-.5-1.2-.9-2.5-1.4-3.7,0-.1-.1-.3-.2-.4-.2-.5-.4-.9-.6-1.4,0-.2-.1-.3-.2-.5-.2-.5-.4-.9-.5-1.4,0-.2-.1-.3-.2-.5-.2-.5-.4-.9-.6-1.4,0-.1-.1-.3-.2-.4-.2-.4-.3-.9-.5-1.3,7.9-2.2,26.6-11.3,35.1-16.5Z"/>
      <path class="st14" d="M317.2,349.1c.1-.6.3-1.1.5-1.7,1.7-3.9,11.8-15.2,21.1-25.2,1.6,2,4.2,5.5,7.1,9.6-13.3,5.8-25.4,12.1-28.7,17.2Z"/>
      <path class="st3" d="M437.4,282.1s-22.9.3-19.5-18.5c3.1-1.1,6-2,7.7-2.1,0,0,0,0,0,0h0c2.5,1.1,7.5,3.1,13.1,3.2,8.9.1,15.6-4.2,19.1-9.2,0-.3,0-.6,0-.8.2,2.1.4,4.2.6,6.4,0,0,0,.1,0,.2,1.6.2,3.2.4,4.6.7,2.9.6,5.8,1.2,8.5,1.8,0,0,.9,19.1-34.1,18.3Z"/>
      <path class="st13" d="M337.3,320.6c.3.3.8.9,1.4,1.7,1.6,2,13.4,18.3,16.4,22.5,2.4-1,20.7-24.6,26.6-26.6.7-1.6.8,15.9.2,27.7,0,.2,0,.5,0,.7-.7,45.1,2,93,2,93,0,.6.7,1.3,1.8,1.9,13.6,8.2,102.1,14.3,120.8-.2.7-.6,1.3-1.1,1.8-1.8,1.9-2.3,2.4-40.5,1.9-79.9,2.6,5.1,4.4,8.4,4.8,8.6.5.2,1.7,0,3.3-.4,7.9-2.2,26.6-11.3,35.1-16.5h0c2.8-1.7,4.5-3.1,4.3-3.6-11.1-27.6-31.7-63.5-37.4-68.1-7.5-6-22.5-10.5-22.5-10.5-5.3-1.8-11.8-3.1-17.1-4-5.3-.9-9.2-1.4-9.2-1.4,0,0,.9,19.1-34.1,18.3,0,0-19.8.2-19.8-14.9s.1-2.3.3-3.6c.1-.7-7.3,1.4-14.2,3.5-6,1.8-11.6,3.6-11.6,3.6,0,0-9.5,2.1-54.7,49.9Z"/>
      <path class="st13" d="M381.9,346.5c0-.2,0-.5,0-.7,0,0,0,0,0,0,0,.2,0,.4,0,.7Z"/>
      <path class="st13" d="M412.1,301.5h13.6v30.8h-13.6v-2.2c1.8,0,2.9-.3,3.6-1.5,1.2-2.1-2.7-3.5-2.7-3.5,1.5,0,5.2,0,5.2-2.7s-4.2-3.5-5.1-3.5c6.1.1,6.1-1.4,6.1-3.1,0-3.3-4.8-3.2-4.8-3.2,3.2-.5,2.9-2.3,2.4-3.8-.3-.9-1.8-1.9-4.8-2.2v-5h0Z"/>
      <g id="mug">
        <path class="st9" d="M406.8,301.5v30.8c0,3,2.4,5.3,5.3,5.3h13.6v2.3c7.9.5,15.9-2.1,22.4-6.5,5.2-3.5,9.3-8.2,11.9-13.9,4.5-9.8,4.7-20.8,4.2-31.5h-34.8c-2,0-3.7,1.7-3.7,3.7v4.4h-13.6c-3,0-5.3,2.4-5.3,5.3ZM412.1,301.5h13.6v30.8h-13.6v-30.8Z"/>
        <path class="st15" d="M425.7,342v-2.1c7.9.5,15.9-2.1,22.4-6.5,5.2-3.5,9.3-8.2,11.9-13.9,4.5-9.8,4.7-20.8,4.2-31.5h5.9c2,0,3.7,1.7,3.7,3.7v50.2c0,2-1.7,3.7-3.7,3.7h-40.7c-.8,0-1.5-.2-2.1-.6-1-.7-1.6-1.8-1.6-3.1Z"/>
      </g>
      <path class="st14" d="M438.7,264.8c-5.7,0-10.6-2.2-13.1-3.2h0s0,0,0,0h0c.2-1,.4-2,.5-2.9,10.5,0,20.9-1.2,24.8-3,2.2-1,4.4-2.9,6.5-5.2,0,.2,0,.5,0,.7,0,.5,0,1,.1,1.5,0,.7.1,1.4.2,2.2,0,.3,0,.6,0,.8-3.6,5-10.3,9.4-19.1,9.2Z"/>
      <path class="st0" d="M386.7,280.4c.4,0,.7.5.6.9-2.4,11.8-3.5,25.5-4,36.3-.5.2-1,.3-1.6.5.5-10.9,1.6-24.9,4-37.1,0-.4.5-.7.9-.6Z"/>
      <path class="st3" d="M317.2,349.1c3.3-5.1,15.5-11.4,28.7-17.2,2.4-1,4.8-2.1,7.2-3,.5-.2,1-.4,1.5-.6,10.8-4.4,21.2-8.1,27.1-10.2.6-.2,1.1-.4,1.6-.5,2.2-.7,3.5-1.2,3.5-1.2,0,0,7.9-7.8,16.6-9.4,1.2-.2,2.4-.4,3.4-.5,2.1-.2,3.9-.2,5.3,0,3,.3,4.5,1.3,4.8,2.2.5,1.6.8,3.4-2.4,3.8,0,0,4.8,0,4.8,3.2s0,3.3-6.1,3.1c.8,0,5.1.3,5.1,3.5s-3.8,2.7-5.2,2.7c0,0,4,1.4,2.7,3.5-.7,1.2-1.7,1.6-3.6,1.5-1.3,0-3-.2-5.3-.3,0,0-.2,0-.3,0-1.2,0-6.4,2.8-10.6,3.8v.2c0,0-5.8,5.3-13.9,12.1-4.7,4-10.3,8.4-15.9,12.6-.4.3-.8.6-1.2.9-10.6,7.9-21.2,14.7-27.5,15.6-21.2,3-24.3-19.5-20.2-25.8,0,0,0,0,0,0Z"/>
      <path class="st0" d="M501,339c-3.6-10-7.1-22-7.2-30.2v-.2c.1-16.1,8.8-27.9,8.8-28,.3-.3.7-.4,1.1-.2.3.3.4.7.2,1.1h0c-.9,1.4-8.4,12.5-8.4,27v.2c0,7.7,3.5,19.7,7.1,29.7,1.8,5,3.5,9.5,4.9,12.7.7,1.6,1.2,2.9,1.6,3.8.4.9.6,1.4.6,1.4.2.4,0,.9-.4,1-.4.2-.9,0-1-.4,0,0-3.6-8-7.1-18.1Z"/>
      <path class="st0" d="M345.3,318.1c.3-.3.8-.2,1.1.1l8.3,10c-.5.2-1,.4-1.5.6l-8-9.7c-.3-.3-.2-.8.1-1.1Z"/>
      <path class="st0" d="M514.7,358.7c3.4-1.4,12.4-5.8,20.4-9.9,4-2,7.8-4,10.6-5.4,2.8-1.4,4.6-2.4,4.6-2.4.4-.2.9,0,1.1.3.2.4,0,.9-.3,1.1h0s-7.2,3.7-15.2,7.8c-8,4.1-16.9,8.5-20.5,9.9-.4.2-.9,0-1-.4-.2-.4,0-.9.4-1Z"/>
      <path class="st0" d="M450.2,440.1c16.9,0,35.4-1.7,52.8-6.8.4-.1.8.1,1,.5.1.4-.1.8-.5,1-17.6,5.2-36.2,6.9-53.3,6.9-34.1,0-61.7-6.9-61.8-6.9-.4-.1-.7-.5-.6-.9.1-.4.5-.7.9-.6h0s.4.1,1.2.3c5.7,1.3,30.5,6.5,60.1,6.5Z"/>
      <g id="Legs">
        <path class="st18" d="M427.5,824.1s-9.1,5.2-69.5,1.8c0,0-2.2-6.4,4.9-9.4,5-2.1,27.1-6.6,32.8-25.8h30.4c1.5,8.9,4.4,29.3,1.4,33.4Z"/>
        <path class="st7" d="M455.8,481.6c0-2.7-.4-5.5-.6-8.2,0-1.5-.1-3,0-4.5.2-3.1.6-6.2,1.1-9.2.1-.6.2-1.3.4-1.9.8-2.5,1.6-4.9,2.8-7.2-30.8.6-65.7-3.9-73.8-9.1-1.3,55.4,1.2,320.9,2.7,349.3h46.3c1.2-10.8,10.1-207.4,11.6-240.4,0-.7,0-1.3,0-2,0-1.8.1-2.7.1-2.7,0,.2,0,.4,0,.7.2-2.1.6-4.2.8-6.2.4-3.1,1.2-6,2.1-8.9,1.5-5.3,2.5-10.8,3.3-16.3.8-6.8,1.3-13.7,2.2-20.5,0-3,.4-5.9,1.3-8.7-.2-1.4-.3-2.8-.3-4.1Z"/>
        <path class="st7" d="M451.7,631.4c0-.3,0-.5,0-.8,0,0,0-.2,0-.2,0,.3,0,.7,0,1Z"/>
        <path class="st0" d="M390.5,771.2h33.4c.2-6.6,2.1-49.4,4.1-93.6,1.1-23.5,2.2-47.3,3.2-66.3,1-19,1.7-33.1,2.1-37.1,1.6-16.1,8.4-27.6,8.4-27.6.2-.4.7-.5,1.1-.3.4.2.5.8.2,1.2h0c-.7,1.4-6.7,12.2-8.1,26.9-.4,3.9-1.2,18-2.1,37-2.7,54.6-6.9,149.5-7.3,159.8h3.3c.4,0,.8.4.8.8s-.3.8-.8.8h-38.3c-.4,0-.8-.4-.8-.8s.3-.8.8-.8Z"/>
        <path class="st0" d="M393.5,497.5c-1.1,6.2-2.4,11.4-4.2,14.3-.2.4-.7.5-1.1.2-.4-.3-.4-.8-.2-1.2,1.6-2.4,3-7.5,4-13.6,1.6-9.2,2.4-20.9,2.9-30.2.2-4.7.4-8.8.5-11.7s.1-4.7.1-4.7c0-.5.4-.8.8-.8.4,0,.8.4.8.9h0s-.2,12.5-1.2,26.4c-.5,6.9-1.3,14.2-2.3,20.5Z"/>
        <path class="st0" d="M442.1,502.3c0,8.3.3,16.1,1,20.7,0,.5-.2.9-.6,1-.4,0-.8-.2-.9-.7-.3-1.9-.5-4.2-.7-6.8-.3-.2-3.2-2-8.7-8.1-.8-.9-1.5-2.3-2.1-4-2-6-3-16.3-3.6-25.1-.5-8.9-.6-16.3-.6-16.3,0-.5.3-.8.8-.8.4,0,.8.4.8.8h0s0,2.4.1,6.1c.2,5.6.6,14.1,1.5,21.7.4,3.8,1,7.5,1.7,10.4.7,2.9,1.6,5.1,2.5,6.1,2.8,3.1,4.9,5.1,6.3,6.2.5.4.8.7,1.1.9-.2-3.7-.2-7.8-.2-12.1,0-16.7,1-35.4,1-35.4,0-.5.4-.8.8-.8.4,0,.8.4.7.9,0,0,0,1.2-.2,3.2-.3,6-.9,19.7-.9,32.1Z"/>
      </g>
      <g id="Head">
        <path class="st3" d="M470.6,221.7c0-.3,0-.5,0-.5h0s0,0,0,0h0c0-.4-.2-.8-.7-.9,0,0-.1,0-.2,0,.5-3.3.8-6.1.9-7.3,2.2-7.4,4.3-10.7,5.3-12,.4-.3.9-.5,1.3-.7,5-.2,7.2,2,8.1,3.2.1.2.3.5.4.7h0s0,0,0,0h0c3.3,6.6-1.9,15.7-7.9,18.3-2.5,1.1-5.2,1-7.4-.8Z"/>
        <path class="st3" d="M400.6,191.5c.5-4.1,2.3-10.4,3-12.8,7.9,1.3,16.3,1.8,22.4,2.2,13.4.9,32.4-3.6,32.4-3.6,2.1,17.9,7.7,16,7.8,17.4,0,0,0,.3,0,.9,0,.1,0,.2,0,.4,0,0,0,0,0,0-.5,6.8-3.9,39.2-23.6,38.1,0,0,3.5-6.9-2-9.4-3.8-1.8-11.1,2-15.6,1.3-4.5-.7-8.6-3.7-10.1-1.6-1.5,2.1-.7,7-.7,7,0,0-8.3-.7-11.4-4.7-3.1-3.9-3.7-10.2-3.7-10.2-.1-4.4.4-7,.4-11.5h0s.4-8.3,1.1-13.5Z"/>
        <path class="st19" d="M419.8,196.4c4.7,4,5.1,9.9,5.1,11.9,0,.4,0,.7,0,.7h0c-.1,5.4-1.9,9.5-2.5,11.7v.2c0,.2,0,.5.4.8.5.5,1.4,1,2.1,1.3.4.2.7.3,1,.4h.3c0,0,0,.1,0,.1.4.1.7.6.5,1-.1.4-.6.7-1,.5h0s-1.2-.3-2.4-1c-.6-.3-1.2-.7-1.7-1.2-.5-.5-.9-1.1-.9-1.9,0-.2,0-.4,0-.6.7-2.4,2.4-6.3,2.5-11.4h0s0,0,0,0h0c0-.2,0-.4,0-.6,0-1.8-.4-7.2-4.5-10.7-.3-.3-.4-.8,0-1.1.3-.3.8-.4,1.1,0Z"/>
        <path class="st16" d="M446.8,208.9c0,1.5-1.1,2.8-2.4,2.7-1.3,0-2.3-1.3-2.3-2.8,0-1.5,1.1-2.8,2.4-2.7,1.3,0,2.3,1.3,2.3,2.8Z"/>
        <path class="st16" d="M415.7,207.5c0,1.5-1.1,2.8-2.4,2.7-1.3,0-2.3-1.3-2.3-2.8,0-1.5,1.1-2.8,2.4-2.7,1.3,0,2.3,1.3,2.3,2.8Z"/>
        <path class="st1" d="M445.1,213.9c4.2,0,7.5,2.1,7.5,4.5,0,2.4-3.5,4.3-7.7,4.2-4.2,0-7.5-2.1-7.5-4.5,0-2.4,3.5-4.3,7.7-4.2Z"/>
        <path class="st1" d="M410.1,213.2c4.2,0,7.5,2.1,7.5,4.5,0,2.4-3.5,4.3-7.7,4.2-4.2,0-7.5-2.1-7.5-4.5,0-2.4,3.5-4.3,7.7-4.2Z"/>
        <path class="st11" d="M411.9,195.1c-2.6,0-5.6,2.5-5.6,1.7,0-.8,1.6-4.3,5.6-4.3s6.2,3.1,5.3,3.4c0,0-2.9-.9-5.4-.9Z"/>
        <path class="st11" d="M446.2,195.8c-2.4,0-5.4.9-5.4.9-.9-.3,1.1-3.4,4.8-3.4s6,3.4,6.1,4.2c0,.8-2.9-1.7-5.6-1.7Z"/>
        <path class="st19" d="M474.4,212c-.8,1.8-1.3,3.7-1.3,5.5,0,.7,0,1.3.2,2,.1.4-.2.9-.6,1-.4.1-.9-.2-1-.6-.2-.8-.3-1.6-.3-2.4,0-3.5,1.6-7,3.5-9.8.9-1.4,1.9-2.5,2.8-3.4.5-.4.9-.8,1.3-1.1.4-.3.8-.5,1.3-.6.2,0,.4,0,.6,0,1.3,0,2.3.7,2.9,1.3.6.6,1,1.2,1,1.3.2.4,0,.9-.3,1.1-.4.2-.9,0-1.1-.3h0,0c0,0-.3-.6-.8-1-.5-.4-1-.8-1.7-.8h-.4c0,0-.3.1-.7.4-1,.6-2.4,2.1-3.7,4.1.8-.3,1.6-.4,2.4-.4,2.9,0,5.2,1.4,5.3,1.4.4.2.5.7.3,1.1-.2.4-.7.5-1.1.3h0c-.4-.3-2.3-1.2-4.4-1.2-1.5,0-3,.5-4.3,2.1Z"/>
        <g>
          <path class="st11" d="M450.9,255.5c-3.9,1.8-14.3,3.1-24.8,3,0,0,0,0,0,0-10.2,0-20.4-1.4-24.6-4.9-9.5-7.7-2.2-37.2-2.2-37.2,0,0,0,0,0,0,0,0,.6,6.3,3.7,10.2,3.1,4,11.4,4.7,11.4,4.7,0,0-.8-4.9.7-7,1.5-2.1,5.6.9,10.1,1.6,4.5.7,11.8-3,15.6-1.3,5.5,2.6,2,9.4,2,9.4,19.7,1.1,23.1-31.2,23.6-38.1,0,0,0,0,0,0,0-.1,0-.2,0-.4,0-.6,0-.9,0-.9-.1-1.5-5.7.4-7.8-17.4,0,0-19,4.5-32.4,3.6-6.1-.4-14.5-1-22.4-2.2-.7,2.5-2.5,8.8-3,12.8-.7,5.2-1.1,13.5-1.1,13.5h0s-7.3-14.2-7-20.2c.2-3.7.7-6.5,1.1-8.2-5.2-1.5-9.4-3.5-11.6-6.2-6.2-8.1,7.8-4.6,7.8-4.6,0,0-17.5-12.4-14.7-19.4,2.8-7,13,3,21.3,3.3,0,0-10.6-6.7-8.1-12.4,1.3-2.9,6.7-4.4,16,2.6,10.3,7.7,18.2,5.1,25.2,4.5,4.6-.4,17.2-8.9,35,1.1,4.3,2.4,6.2,7.9,6.2,8.3s7.7-.3,11,3.5c3.3,3.8,13.7,18.4,4.1,47.1h0s0,0,0,0c0,0-.1-.3-.4-.7-.8-1.2-3-3.5-8.1-3.2-.2,0-.5,0-.7,0,0,0-.2.2-.6.7-1,1.3-3.1,4.7-5.3,12-.1,1.2-.5,4-.9,7.3-.4,0-.7.3-.7.7,0,0,0,.2,0,.6,0,.4-.2,1-.3,1.7-.3,1.5-.7,3.5-1.2,5.7-1.1,4.5-2.9,9.8-5.2,13.2-.2.4-.2.8.2,1.1.4.2.8.2,1.1-.2,2.6-3.7,4.3-9.1,5.5-13.7.9-3.6,1.4-6.6,1.6-7.7,2.2,1.8,4.9,1.9,7.4.8-4,8.4-6.5,11.2-6.5,11.2,4.5,4.5,13.9,5.9,12.6,8.2-2.4,4.4-16.4.8-16.4.8,2.9,2.8,12.3,4.7,5.9,6-3.2.7-8.5-.9-13-2.6-1,1.5-2.1,2.9-3.3,4.2-2.1,2.3-4.3,4.2-6.5,5.2Z"/>
          <path class="st10" d="M459.1,175c-.2.4-.7.5-1.1.3-.4-.2-.5-.7-.3-1.1l10.1-18.7c.2-.4.7-.5,1.1-.3.4.2.5.7.3,1.1l-10.1,18.7Z"/>
          <path class="st10" d="M462.2,162.1c-.4.2-.9,0-1-.4h0c0,0-.7-1.4-2.7-2.7-2-1.3-5.3-2.6-10.5-2.6-1,0-2.2,0-3.4.2-.4,0-.8-.3-.8-.7,0-.4.3-.8.7-.8,1.3-.1,2.4-.2,3.5-.2,5.7,0,9.4,1.5,11.6,3,2.2,1.5,3,3.1,3.1,3.2.2.4,0,.9-.4,1Z"/>
          <path class="st10" d="M431.1,162.2c-.4,0-.8-.2-.9-.6,0-.4.2-.8.6-.9,2.9-.5,5.6-.7,8.1-.7,8.8,0,14.6,2.6,14.6,2.6.4.2.6.6.4,1-.2.4-.6.6-1,.4h0s0,0,0,0c-.6-.3-6-2.5-13.9-2.5-2.4,0-5,.2-7.8.7Z"/>
          <path class="st10" d="M410.2,170.7c1.2.2,3.3.3,5.9.3,5.9,0,14.3-.4,21.2-.8,3.5-.2,6.6-.4,8.8-.5,2.2-.1,3.6-.2,3.6-.2.4,0,.8.3.8.7,0,.4-.3.8-.7.8h0s-22,1.6-33.8,1.6c-2.6,0-4.8,0-6.1-.3-.4,0-.7-.5-.7-.9,0-.4.5-.7.9-.7Z"/>
          <path class="st10" d="M470.3,188c-4.4-6.7-4.9-16.1-4.9-16.2,0-.4.3-.8.7-.8.4,0,.8.3.8.7h0s0,.2,0,.7c.2,1.6.7,5.7,2.2,9.7,1.5,4.1,3.9,8.1,7.6,9.7.4.2.6.6.4,1-.2.4-.6.6-1,.4-2.5-1.1-4.4-3-5.9-5.3Z"/>
          <path class="st10" d="M483.7,168.5c-.4.1-.9,0-1-.5,0-.2-.3-.5-.7-.8-.6-.6-1.7-1.2-3-1.7-1.9-.8-4.1-1.5-5.8-2-.9-.2-1.6-.4-2.1-.6-.5-.1-.8-.2-.8-.2-.4,0-.7-.5-.6-.9,0-.4.5-.7.9-.6h0s3,.7,6.1,1.7c1.6.5,3.2,1.2,4.5,1.9.7.4,1.3.8,1.8,1.2.5.4.9.9,1.1,1.5.1.4,0,.9-.5,1Z"/>
          <path class="st10" d="M470.7,221.2s0,.2,0,.5c-.2,1.2-.7,4.1-1.6,7.7-1.1,4.6-2.9,10-5.5,13.7-.2.4-.7.4-1.1.2-.4-.2-.4-.7-.2-1.1,2.4-3.4,4.1-8.7,5.2-13.2.6-2.2,1-4.3,1.2-5.7.1-.7.2-1.3.3-1.7,0-.4,0-.6,0-.6,0-.4.4-.6.7-.7,0,0,.1,0,.2,0,.4,0,.7.5.7.9Z"/>
        </g>
        <path class="st2" d="M427.3,233.7c-6,0-7.3-2.3-7.9-3.1-.5-.8.5-1.2.5-1.2.9-.2,5.8,1.9,13.5-.4.9-.3,1.7.2,1.4,1-.3.8-1.8,3.7-7.5,3.6Z"/>
      </g>
    </g>
  </g>
  <g id="TEXT">
    <text class="st17" transform="translate(430.4 312)"><tspan x="0" y="0">EAT SHIT</tspan><tspan x="0" y="14.4">AND DIE</tspan></text>
  </g>
  <g id="hand">
    <g id="Legs1" data-name="Legs">
      <path class="st18" d="M497.1,828c-1.1.6-69.9-1-71.6-2.7-1.7-1.7,2-6.6,19.5-12,12.7-3.9,15.8-16.3,16.6-22.9l35.7,1.4c1.7,10.4.8,35.8-.2,36.3Z"/>
      <path class="st7" d="M493.8,448.3c-9.7,1.6-22,2-34.7,1.6s-10.4,2.8-13.1,7.6-.2.3-.2.4c-.3.5-.6.9-.9,1.4s0,0,0,0c-2.1,2.8-3.1,6.2-3,9.7s0,1.8,0,2.7c0,6.7-1,13.3-1.5,20s0,1,0,1.5c0,2.3.1,4.7.3,7s.2,1.7.4,2.5.2.8.2,1.2c.3,1.6.4,3.2.5,4.7s.1,1.1.2,1.7.2.9.3,1.4c.4,1.9.6,3.8.6,5.6s0,1.1.1,1.7c.3,2.3.6,4.5,1.1,6.7.4,1.8,1,3.5,1.5,5.2,1.1,4,1.3,8.2,1.5,12.4,0,1.1,0,2.2-.1,3.3h0c.1-1.3.2-2,.2-2,.5,6.7,4.6,181.5,6,232.1.2,7.6,6.2,13.6,13.8,13.9l25.7,1c7.9.3,14.6-5.9,14.9-13.8,2.5-61.3,3.1-244.9,3.3-315.3,0-8.9-8-15.6-16.8-14.2Z"/>
      <path class="st0" d="M456.4,770.6l38.7,1.5c0-.6.1-1.7.2-3,1.4-17.2,6.9-87.4,7.7-111.4,0-1.5,0-2.8.1-3.9.1-10.7-.7-45-1.6-76.6-.4-15.8-.9-30.9-1.2-42.1-.2-5.6-.3-10.2-.4-13.4,0-2.5-.1-4.1-.1-4.7-19-25.8-18.8-55.1-18.6-59.9,0-.4,0-.7,0-.7,0-.5.4-.8.8-.8.4,0,.8.4.7.9,0,0,0,.2,0,.6-.2,4.9-.4,37.7,22.6,64.2.3.3.3.9,0,1.2-.3.3-.8.3-1.1,0-1-1.1-1.9-2.2-2.7-3.3.5,16.8,3.6,114.9,3.3,134.7,0,1.1,0,2.4-.1,3.9-.9,25.9-7.2,105.2-8,114.4h3.1c.4.1.8.5.8,1s-.4.8-.8.8l-43.3-1.7c-.4,0-.8-.4-.7-.9s.4-.8.8-.8Z"/>
      <path class="st0" d="M442.6,518.2c.2,1.5.4,2.9.6,4.4.2.1.4.2.6.2.4,0,.7-.5.7-.9-.6-4.6-.6-12.5-.3-20.8.4-12.5,1.5-26.1,2-32.1.2-2,.3-3.2.3-3.2,0-.5-.3-.9-.7-.9-.4,0-.8.3-.9.8,0,0-1.7,18.6-2.3,35.3-.2,4.3-.2,8.4-.2,12.1,0,0-.2-.1-.2-.2.3,1.8.4,3.6.4,5.3Z"/>
    </g>
  </g>
  <g id="bananas">
    <g id="banana_x5F_12">
      <path class="st6" d="M457.2,129.8c-10.8-.3-19.2-8.5-18.9-18.3.4-9.8,9.4-17.5,20.2-17.2.3,0,.6,0,.9,0l7.7-43.4c.2-6.6,6.3-11.8,13.6-11.6,7.3.2,13,5.7,12.7,12.3v42.5c2.7-1.2,5.9-1.9,9.2-1.8,10.8.3,19.2,8.5,18.9,18.3-.4,9.8-9.4,17.5-20.2,17.2-4.4-.1-8.3-1.5-11.5-3.8l-15.4-2.6c-3.6,5.2-10,8.6-17.2,8.4Z"/>
      <ellipse class="st4" cx="457.9" cy="112.1" rx="19.5" ry="17.7" transform="translate(-.7 3.1) rotate(-.4)"/>
      <ellipse class="st4" cx="502" cy="110.1" rx="19.5" ry="17.7" transform="translate(-.7 3.3) rotate(-.4)"/>
      <line class="st4" x1="494.5" y1="61.5" x2="466.6" y2="60.7"/>
      <path class="st8" d="M510,103c0,.6,0,1.1,0,1.7v-.4c0,.4-.1.9-.3,1.3s0,.9.1,1.3.6.7,1,.8.9,0,1.3-.1.6-.6.8-1c.2-.6.3-1.2.4-1.9s0-1,0-1.5c0-.2,0-.4-.1-.6,0-.2-.2-.4-.3-.5-.3-.3-.8-.5-1.2-.5s-.9.1-1.2.5-.6.7-.5,1.2h0Z"/>
      <path class="st8" d="M502.3,112.6l.3,1.4c0,.2.1.4.3.6.1.2.3.3.5.4.2.1.4.2.6.2.2,0,.4,0,.7,0l.4-.2c.3-.1.5-.3.6-.6l.2-.4c0-.3,0-.6,0-.9l-.3-1.4c0-.2-.1-.4-.3-.6-.1-.2-.3-.3-.5-.4-.2-.1-.4-.2-.6-.2-.2,0-.4,0-.7,0l-.4.2c-.3.1-.5.3-.6.6l-.2.4c0,.3,0,.6,0,.9h0Z"/>
      <path class="st8" d="M497.7,105.3c2.1,0,2.2-3.3,0-3.3s-2.2,3.3,0,3.3h0Z"/>
      <path class="st8" d="M511.4,114v.5c0,.2,0,.4.1.6,0,.2.2.4.3.5.1.2.3.3.5.4.2.1.4.2.6.2h.4c.3-.1.5-.3.7-.5l.3-.3c.2-.3.2-.5.2-.8v-.5c0-.2,0-.4-.1-.6,0-.2-.2-.4-.3-.5-.1-.2-.3-.3-.5-.4-.2-.1-.4-.2-.6-.2h-.4c-.3.1-.5.3-.7.5l-.3.3c-.2.3-.2.5-.2.8h0Z"/>
      <path class="st8" d="M458.3,107.7c.2.2.4.5.6.7l-.3-.3c.4.6.8,1.2,1.1,1.9l-.2-.4c0,.2.2.5.2.7.1.4.4.8.7,1s.9.3,1.3.2.8-.4,1-.7.3-.8.2-1.3c-.4-1.5-1.2-2.9-2.3-4.1s-.7-.5-1.2-.5-.9.2-1.2.5-.5.7-.5,1.2.2.8.5,1.2h0Z"/>
      <path class="st8" d="M468.9,117.7c2.1,0,2.2-3.3,0-3.3s-2.2,3.3,0,3.3h0Z"/>
      <path class="st8" d="M448.1,115.1l1.6,4.1c.2.4.3.8.7,1s.9.3,1.3.2.8-.4,1-.7.3-.9.2-1.3l-1.6-4.1c-.2-.4-.3-.8-.7-1s-.9-.3-1.3-.2-.8.4-1,.7-.3.9-.2,1.3h0Z"/>
      <path class="st8" d="M460.1,122.5c2.1,0,2.2-3.3,0-3.3s-2.2,3.3,0,3.3h0Z"/>
      <path class="st8" d="M466.1,105.2v.5c0,.2,0,.4.1.6,0,.2.2.4.3.5.1.2.3.3.5.4.2.1.4.2.6.2h.4c.3-.1.5-.3.7-.5l.3-.3c.2-.3.2-.5.2-.8v-.5c0-.2,0-.4-.1-.6,0-.2-.2-.4-.3-.5-.1-.2-.3-.3-.5-.4-.2-.1-.4-.2-.6-.2h-.4c-.3.1-.5.3-.7.5l-.3.3c-.2.3-.2.5-.2.8h0Z"/>
      <path class="st8" d="M448.5,108.2c2.1,0,2.2-3.3,0-3.3s-2.2,3.3,0,3.3h0Z"/>
      <path class="st8" d="M480.2,41.5v1.9c0,.2,0,.4,0,.6,0,.2.2.4.3.5.1.2.3.3.5.4.2.1.4.2.6.2.4,0,.9-.1,1.2-.5s.5-.7.5-1.2v-1.9c0-.2,0-.4,0-.6,0-.2-.2-.4-.3-.5-.1-.2-.3-.3-.5-.4-.2-.1-.4-.2-.6-.2-.4,0-.9.1-1.2.5s-.5.7-.5,1.2h0Z"/>
      <path class="st8" d="M497.5,120v-1.4c0-.2,0-.4,0-.6,0-.2-.2-.4-.3-.5-.1-.2-.3-.3-.5-.4-.2-.1-.4-.2-.6-.2h-.4c-.3.1-.5.3-.7.5l-.3.3c-.2.3-.2.5-.2.8v1.4c0,.2,0,.4,0,.6,0,.2.2.4.3.5.1.2.3.3.5.4.2.1.4.2.6.2h.4c.3-.1.5-.3.7-.5l.3-.3c.2-.3.2-.5.2-.8h0Z"/>
      <path class="st8" d="M490.1,113.5c2.1,0,2.2-3.3,0-3.3s-2.2,3.3,0,3.3h0Z"/>
    </g>
    <g id="banana_x5F_11">
      <path class="st6" d="M291.8,186.3c-9.5,5.1-20.9,2.3-25.5-6.4-4.6-8.7-.6-19.8,8.9-25s.5-.3.8-.4l-15-41.5c-3.1-5.8-.4-13.4,6-16.8,6.4-3.5,14.1-1.5,17.2,4.3l21.2,36.8c1.8-2.5,4.2-4.6,7.1-6.2,9.5-5.1,20.9-2.3,25.5,6.4,4.6,8.7.6,19.8-8.9,25-3.8,2.1-8,2.8-11.9,2.4l-14.6,5.5c-.5,6.3-4.4,12.4-10.7,15.8Z"/>
      <ellipse class="st4" cx="283.4" cy="170.6" rx="19.5" ry="17.7" transform="translate(-47.4 166.8) rotate(-30.4)"/>
      <ellipse class="st4" cx="320.7" cy="146.9" rx="19.5" ry="17.7" transform="translate(-30.2 182.3) rotate(-30.4)"/>
      <line class="st4" x1="289.9" y1="108.6" x2="265.3" y2="121.8"/>
      <path class="st8" d="M324.1,136.7c.3.5.6.9.8,1.5l-.2-.4c.2.4.3.8.4,1.3s.4.8.8,1,.8.3,1.2.2.8-.4,1-.8.3-.8.2-1.2c-.1-.6-.3-1.2-.6-1.8s-.5-.9-.8-1.3c-.1-.2-.2-.4-.4-.5-.2-.1-.3-.2-.6-.3-.4-.1-.9,0-1.3.1s-.7.6-.8,1-.1.9.1,1.3h0Z"/>
      <path class="st8" d="M322.2,148.9l.9,1c.1.2.3.3.5.3.2.1.4.2.6.1.2,0,.4,0,.6-.1.2,0,.4-.2.6-.3l.3-.3c.1-.2.2-.5.2-.8v-.4c-.1-.3-.3-.6-.5-.8l-.9-1c-.1-.2-.3-.3-.5-.3-.2-.1-.4-.2-.6-.1-.2,0-.4,0-.6.1-.2,0-.4.2-.6.3l-.3.3c-.1.2-.2.5-.2.8v.4c.1.3.3.6.5.8h0Z"/>
      <path class="st8" d="M314.6,144.9c1.9-1,.3-3.9-1.6-2.9s-.3,3.9,1.6,2.9h0Z"/>
      <path class="st8" d="M330.8,145.5l.3.5c.1.2.2.4.4.5.2.1.3.2.6.3.2,0,.4,0,.6,0,.2,0,.4,0,.6-.2l.4-.3c.2-.2.4-.4.4-.7v-.4c0-.3,0-.6-.1-.8l-.3-.5c-.1-.2-.2-.4-.4-.5-.2-.1-.3-.2-.6-.3-.2,0-.4,0-.6,0-.2,0-.4,0-.6.2l-.4.3c-.2.2-.4.4-.4.7v.4c0,.3,0,.6.1.8h0Z"/>
      <path class="st8" d="M281.6,166.6c.3,0,.6.2.9.3l-.4-.2c.7.3,1.3.7,1.8,1.1l-.3-.3c.2.2.4.3.6.5.3.3.7.5,1.1.5s.9-.2,1.2-.5.5-.7.5-1.1-.1-.9-.5-1.2c-1.1-1.1-2.5-1.9-4-2.4s-.9,0-1.3.1-.7.6-.8,1,0,.9.1,1.3.6.7,1,.8h0Z"/>
      <path class="st8" d="M295.7,170c1.9-1,.3-3.9-1.6-2.9s-.3,3.9,1.6,2.9h0Z"/>
      <path class="st8" d="M276.5,178.1l3.4,2.7c.4.3.7.5,1.1.5s.9-.2,1.2-.5.5-.7.5-1.1-.1-.9-.5-1.2l-3.4-2.7c-.4-.3-.7-.5-1.1-.5s-.9.2-1.2.5-.5.7-.5,1.1.1.9.5,1.2h0Z"/>
      <path class="st8" d="M290.6,178.6c1.9-1,.3-3.9-1.6-2.9s-.3,3.9,1.6,2.9h0Z"/>
      <path class="st8" d="M287.2,160.5l.3.5c.1.2.2.4.4.5.2.1.3.2.6.3.2,0,.4,0,.6,0,.2,0,.4,0,.6-.2l.4-.3c.2-.2.4-.4.4-.7v-.4c0-.3,0-.6-.1-.8l-.3-.5c-.1-.2-.2-.4-.4-.5-.2-.1-.3-.2-.6-.3-.2,0-.4,0-.6,0-.2,0-.4,0-.6.2l-.4.3c-.2.2-.4.4-.4.7v.4c0,.3,0,.6.1.8h0Z"/>
      <path class="st8" d="M273.4,172c1.9-1,.3-3.9-1.6-2.9s-.3,3.9,1.6,2.9h0Z"/>
      <path class="st8" d="M267.5,98.3l.9,1.7c.1.2.2.4.4.5.2.1.3.2.6.3.2,0,.4,0,.6,0,.2,0,.4,0,.6-.2.4-.2.7-.6.8-1s0-.9-.1-1.3l-.9-1.7c-.1-.2-.2-.4-.4-.5-.2-.1-.3-.2-.6-.3-.2,0-.4,0-.6,0-.2,0-.4,0-.6.2-.4.2-.7.6-.8,1s0,.9.1,1.3h0Z"/>
      <path class="st8" d="M321.7,157.7l-.7-1.3c-.1-.2-.2-.4-.4-.5-.2-.1-.3-.2-.6-.3-.2,0-.4,0-.6,0-.2,0-.4,0-.6.2l-.4.3c-.2.2-.4.4-.4.7v.4c0,.3,0,.6.1.8l.7,1.3c.1.2.2.4.4.5.2.1.3.2.6.3.2,0,.4,0,.6,0,.2,0,.4,0,.6-.2l.4-.3c.2-.2.4-.4.4-.7v-.4c0-.3,0-.6-.1-.8h0Z"/>
      <path class="st8" d="M312.1,155.8c1.9-1,.3-3.9-1.6-2.9s-.3,3.9,1.6,2.9h0Z"/>
    </g>
    <g id="banana_x5F_10">
      <path class="st6" d="M176.7,318c-5.7,9.2-17,12.4-25.3,7.2-8.3-5.2-10.4-16.9-4.8-26.1s.3-.5.5-.8l-33.8-28.4c-5.6-3.5-7-11.4-3.2-17.6,3.8-6.2,11.4-8.4,17-4.9l36.7,21.3c.3-3,1.3-6.1,3-8.9,5.7-9.2,17-12.4,25.3-7.2,8.3,5.2,10.5,16.9,4.8,26.1-2.3,3.7-5.5,6.5-9.1,8.1l-9.9,12c2.7,5.7,2.4,12.9-1.4,19.1Z"/>
      <ellipse class="st4" cx="161.7" cy="308.6" rx="19.5" ry="17.7" transform="translate(-186.5 296.6) rotate(-60.4)"/>
      <ellipse class="st4" cx="182" cy="269.4" rx="19.5" ry="17.7" transform="translate(-142.1 294.5) rotate(-60.4)"/>
      <line class="st4" x1="136.2" y1="251.6" x2="121.6" y2="275.3"/>
      <path class="st8" d="M179.8,258.8c.5.2,1,.5,1.4.9l-.3-.3c.3.3.7.6.9.9s.8.5,1.2.5.9-.2,1.2-.5.5-.7.5-1.2-.2-.8-.5-1.2c-.4-.5-.9-.9-1.4-1.3s-.8-.6-1.3-.8c-.2-.1-.4-.2-.6-.2-.2,0-.4,0-.6,0-.4,0-.8.4-1,.8s-.3.8-.2,1.3.4.8.8,1h0Z"/>
      <path class="st8" d="M184.3,270.3l1.3.5c.2,0,.4,0,.6,0,.2,0,.4,0,.6-.2.2-.1.4-.2.5-.4.2-.2.3-.4.3-.6v-.4c0-.3,0-.6-.1-.8l-.3-.3c-.2-.2-.5-.4-.8-.5l-1.3-.5c-.2,0-.4,0-.6,0-.2,0-.4,0-.6.2-.2.1-.4.2-.5.4-.2.2-.3.4-.3.6v.4c0,.3,0,.6.1.8l.3.3c.2.2.5.4.8.5h0Z"/>
      <path class="st8" d="M175.7,270.7c1.1-1.8-1.7-3.5-2.8-1.7s1.7,3.5,2.8,1.7h0Z"/>
      <path class="st8" d="M190.1,263.2l.5.3c.2.1.4.2.6.2.2,0,.4,0,.6,0,.2,0,.4-.1.6-.3.2-.1.3-.3.5-.5l.2-.4c0-.3,0-.6,0-.8l-.2-.4c-.1-.3-.3-.5-.6-.6l-.5-.3c-.2-.1-.4-.2-.6-.2-.2,0-.4,0-.6,0-.2,0-.4.1-.6.3-.2.1-.3.3-.5.5l-.2.4c0,.3,0,.6,0,.8l.2.4c.1.3.3.5.6.6h0Z"/>
      <path class="st8" d="M158.1,306c.3,0,.6-.1.9-.2h-.4c.7,0,1.4,0,2.1,0h-.4c.3,0,.5,0,.7,0,.4,0,.9,0,1.2-.1s.7-.6.8-1,0-.9-.1-1.2-.6-.7-1-.8c-1.5-.4-3.1-.4-4.7,0s-.8.4-1,.8-.3.9-.2,1.3.4.8.8,1,.8.3,1.3.2h0Z"/>
      <path class="st8" d="M172,301.9c1.1-1.8-1.7-3.5-2.8-1.7s1.7,3.5,2.8,1.7h0Z"/>
      <path class="st8" d="M159.4,318.5l4.3.6c.4,0,.8,0,1.2-.1s.7-.6.8-1,0-.9-.1-1.2-.6-.7-1-.8l-4.3-.6c-.4,0-.8,0-1.2.1s-.7.6-.8,1,0,.9.1,1.2.6.7,1,.8h0Z"/>
      <path class="st8" d="M171.8,311.9c1.1-1.8-1.7-3.5-2.8-1.7s1.7,3.5,2.8,1.7h0Z"/>
      <path class="st8" d="M159.8,298l.5.3c.2.1.4.2.6.2.2,0,.4,0,.6,0,.2,0,.4-.1.6-.3.2-.1.3-.3.5-.5l.2-.4c0-.3,0-.6,0-.8l-.2-.4c-.1-.3-.3-.5-.6-.6l-.5-.3c-.2-.1-.4-.2-.6-.2-.2,0-.4,0-.6,0-.2,0-.4.1-.6.3-.2.1-.3.3-.5.5l-.2.4c0,.3,0,.6,0,.8l.2.4c.1.3.3.5.6.6h0Z"/>
      <path class="st8" d="M153.6,314.8c1.1-1.8-1.7-3.5-2.8-1.7s1.7,3.5,2.8,1.7h0Z"/>
      <path class="st8" d="M111.7,253.9l1.6,1c.2.1.4.2.6.2.2,0,.4,0,.6,0,.2,0,.4-.1.6-.3.2-.1.3-.3.5-.5.2-.4.3-.8.2-1.3s-.4-.8-.8-1l-1.6-1c-.2-.1-.4-.2-.6-.2-.2,0-.4,0-.6,0-.2,0-.4.1-.6.3-.2.1-.3.3-.5.5-.2.4-.3.8-.2,1.3s.4.8.8,1h0Z"/>
      <path class="st8" d="M188.3,278.2l-1.2-.8c-.2-.1-.4-.2-.6-.2-.2,0-.4,0-.6,0-.2,0-.4.1-.6.3-.2.1-.3.3-.5.5l-.2.4c0,.3,0,.6,0,.8l.2.4c.1.3.3.5.6.6l1.2.8c.2.1.4.2.6.2.2,0,.4,0,.6,0,.2,0,.4-.1.6-.3.2-.1.3-.3.5-.5l.2-.4c0-.3,0-.6,0-.8l-.2-.4c-.1-.3-.3-.5-.6-.6h0Z"/>
      <path class="st8" d="M179,281.4c1.1-1.8-1.7-3.5-2.8-1.7s1.7,3.5,2.8,1.7h0Z"/>
    </g>
    <g id="banana_x5F_9">
      <path class="st6" d="M142.9,489.6c-.3,10.8-8.5,19.2-18.3,18.9-9.8-.4-17.5-9.4-17.2-20.2,0-.3,0-.6,0-.9l-43.4-7.7c-6.6-.2-11.8-6.3-11.6-13.6.2-7.3,5.7-13,12.3-12.7h42.5c-1.2-2.7-1.9-5.9-1.8-9.2.3-10.8,8.5-19.2,18.3-18.9,9.8.4,17.5,9.4,17.2,20.2-.1,4.4-1.5,8.3-3.8,11.5l-2.6,15.4c5.2,3.6,8.6,10,8.4,17.2Z"/>
      <ellipse class="st4" cx="125.1" cy="488.9" rx="17.7" ry="19.5" transform="translate(-3.3 .8) rotate(-.4)"/>
      <ellipse class="st4" cx="123.2" cy="444.8" rx="17.7" ry="19.5" transform="translate(-3 .8) rotate(-.4)"/>
      <line class="st4" x1="74.6" y1="452.3" x2="73.8" y2="480.2"/>
      <path class="st8" d="M116,436.7c.6,0,1.1,0,1.7,0h-.4c.4,0,.9.1,1.3.3s.9,0,1.3-.1.7-.6.8-1,0-.9-.1-1.3-.6-.6-1-.8c-.6-.2-1.2-.3-1.9-.4s-1,0-1.5,0c-.2,0-.4,0-.6.1-.2,0-.4.2-.5.3-.3.3-.5.8-.5,1.2s.1.9.5,1.2.7.6,1.2.5h0Z"/>
      <path class="st8" d="M125.7,444.5l1.4-.3c.2,0,.4-.1.6-.3.2-.1.3-.3.4-.5.1-.2.2-.4.2-.6,0-.2,0-.4,0-.7l-.2-.4c-.1-.3-.3-.5-.6-.6l-.4-.2c-.3,0-.6,0-.9,0l-1.4.3c-.2,0-.4.1-.6.3-.2.1-.3.3-.4.5-.1.2-.2.4-.2.6,0,.2,0,.4,0,.7l.2.4c.1.3.3.5.6.6l.4.2c.3,0,.6,0,.9,0h0Z"/>
      <path class="st8" d="M118.4,449c0-2.1-3.3-2.2-3.3,0s3.3,2.2,3.3,0h0Z"/>
      <path class="st8" d="M127.1,435.4h.5c.2,0,.4,0,.6-.1.2,0,.4-.2.5-.3.2-.1.3-.3.4-.5.1-.2.2-.4.2-.6v-.4c-.1-.3-.3-.5-.5-.7l-.3-.3c-.3-.2-.5-.2-.8-.2h-.5c-.2,0-.4,0-.6.1-.2,0-.4.2-.5.3-.2.1-.3.3-.4.5-.1.2-.2.4-.2.6v.4c.1.3.3.5.5.7l.3.3c.3.2.5.2.8.2h0Z"/>
      <path class="st8" d="M120.8,488.5c.2-.2.5-.4.7-.6l-.3.3c.6-.4,1.2-.8,1.9-1.1l-.4.2c.2,0,.5-.2.7-.2.4-.1.8-.4,1-.7s.3-.9.2-1.3-.4-.8-.7-1-.8-.3-1.3-.2c-1.5.4-2.9,1.2-4.1,2.3s-.5.7-.5,1.2.2.9.5,1.2.7.5,1.2.5.8-.2,1.2-.5h0Z"/>
      <path class="st8" d="M130.8,477.9c0-2.1-3.3-2.2-3.3,0s3.3,2.2,3.3,0h0Z"/>
      <path class="st8" d="M128.1,498.7l4.1-1.6c.4-.2.8-.3,1-.7s.3-.9.2-1.3-.4-.8-.7-1-.9-.3-1.3-.2l-4.1,1.6c-.4.2-.8.3-1,.7s-.3.9-.2,1.3.4.8.7,1,.9.3,1.3.2h0Z"/>
      <path class="st8" d="M135.6,486.7c0-2.1-3.3-2.2-3.3,0s3.3,2.2,3.3,0h0Z"/>
      <path class="st8" d="M118.3,480.7h.5c.2,0,.4,0,.6-.1.2,0,.4-.2.5-.3.2-.1.3-.3.4-.5.1-.2.2-.4.2-.6v-.4c-.1-.3-.3-.5-.5-.7l-.3-.3c-.3-.2-.5-.2-.8-.2h-.5c-.2,0-.4,0-.6.1-.2,0-.4.2-.5.3-.2.1-.3.3-.4.5-.1.2-.2.4-.2.6v.4c.1.3.3.5.5.7l.3.3c.3.2.5.2.8.2h0Z"/>
      <path class="st8" d="M121.3,498.3c0-2.1-3.3-2.2-3.3,0s3.3,2.2,3.3,0h0Z"/>
      <path class="st8" d="M54.6,466.5h1.9c.2,0,.4,0,.6,0,.2,0,.4-.2.5-.3.2-.1.3-.3.4-.5.1-.2.2-.4.2-.6,0-.4-.1-.9-.5-1.2s-.7-.5-1.2-.5h-1.9c-.2,0-.4,0-.6,0-.2,0-.4.2-.5.3-.2.1-.3.3-.4.5-.1.2-.2.4-.2.6,0,.4.1.9.5,1.2s.7.5,1.2.5h0Z"/>
      <path class="st8" d="M133,449.3h-1.4c-.2,0-.4,0-.6,0-.2,0-.4.2-.5.3-.2.1-.3.3-.4.5-.1.2-.2.4-.2.6v.4c.1.3.3.5.5.7l.3.3c.3.2.5.2.8.2h1.4c.2,0,.4,0,.6,0,.2,0,.4-.2.5-.3.2-.1.3-.3.4-.5.1-.2.2-.4.2-.6v-.4c-.1-.3-.3-.5-.5-.7l-.3-.3c-.3-.2-.5-.2-.8-.2h0Z"/>
      <path class="st8" d="M126.6,456.7c0-2.1-3.3-2.2-3.3,0s3.3,2.2,3.3,0h0Z"/>
    </g>
    <g id="banana_x5F_8">
      <path class="st6" d="M199.4,655c5.1,9.5,2.3,20.9-6.4,25.5-8.7,4.6-19.8.6-25-8.9s-.3-.5-.4-.8l-41.5,15c-5.8,3.1-13.4.4-16.8-6-3.5-6.4-1.5-14.1,4.3-17.2l36.8-21.2c-2.5-1.8-4.6-4.2-6.2-7.1-5.1-9.5-2.3-20.9,6.4-25.5s19.8-.6,25,8.9c2.1,3.8,2.8,8,2.4,11.9l5.5,14.6c6.3.5,12.4,4.4,15.8,10.7Z"/>
      <ellipse class="st4" cx="183.7" cy="663.3" rx="17.7" ry="19.5" transform="translate(-310.3 184) rotate(-30.4)"/>
      <ellipse class="st4" cx="160" cy="626.1" rx="17.7" ry="19.5" transform="translate(-294.7 166.9) rotate(-30.4)"/>
      <line class="st4" x1="121.6" y1="656.9" x2="134.9" y2="681.5"/>
      <path class="st8" d="M149.7,622.7c.5-.3.9-.6,1.5-.8l-.4.2c.4-.2.8-.3,1.3-.4s.8-.4,1-.8.3-.8.2-1.2-.4-.8-.8-1-.8-.3-1.2-.2c-.6.1-1.2.3-1.8.6s-.9.5-1.3.8c-.2.1-.4.2-.5.4-.1.2-.2.3-.3.6-.1.4,0,.9.1,1.3s.6.7,1,.8.9.1,1.3-.1h0Z"/>
      <path class="st8" d="M162,624.6l1-.9c.2-.1.3-.3.3-.5.1-.2.2-.4.1-.6,0-.2,0-.4-.1-.6,0-.2-.2-.4-.3-.6l-.3-.3c-.2-.1-.5-.2-.8-.2h-.4c-.3.1-.6.3-.8.5l-1,.9c-.2.1-.3.3-.3.5-.1.2-.2.4-.1.6,0,.2,0,.4.1.6,0,.2.2.4.3.6l.3.3c.2.1.5.2.8.2h.4c.3-.1.6-.3.8-.5h0Z"/>
      <path class="st8" d="M157.9,632.2c-1-1.9-3.9-.3-2.9,1.6s3.9.3,2.9-1.6h0Z"/>
      <path class="st8" d="M158.6,616l.5-.3c.2-.1.4-.2.5-.4.1-.2.2-.3.3-.6,0-.2,0-.4,0-.6,0-.2,0-.4-.2-.6l-.3-.4c-.2-.2-.4-.4-.7-.4h-.4c-.3,0-.6,0-.8.1l-.5.3c-.2.1-.4.2-.5.4-.1.2-.2.3-.3.6,0,.2,0,.4,0,.6,0,.2,0,.4.2.6l.3.4c.2.2.4.4.7.4h.4c.3,0,.6,0,.8-.1h0Z"/>
      <path class="st8" d="M179.7,665.2c0-.3.2-.6.3-.9l-.2.4c.3-.7.7-1.3,1.1-1.8l-.3.3c.2-.2.3-.4.5-.6.3-.3.5-.7.5-1.1s-.2-.9-.5-1.2-.7-.5-1.1-.5-.9.1-1.2.5c-1.1,1.1-1.9,2.5-2.4,4s0,.9.1,1.3.6.7,1,.8.9,0,1.3-.1.7-.6.8-1h0Z"/>
      <path class="st8" d="M183.1,651c-1-1.9-3.9-.3-2.9,1.6s3.9.3,2.9-1.6h0Z"/>
      <path class="st8" d="M191.2,670.3l2.7-3.4c.3-.4.5-.7.5-1.1s-.2-.9-.5-1.2-.7-.5-1.1-.5-.9.1-1.2.5l-2.7,3.4c-.3.4-.5.7-.5,1.1s.2.9.5,1.2.7.5,1.1.5.9-.1,1.2-.5h0Z"/>
      <path class="st8" d="M191.7,656.2c-1-1.9-3.9-.3-2.9,1.6s3.9.3,2.9-1.6h0Z"/>
      <path class="st8" d="M173.6,659.6l.5-.3c.2-.1.4-.2.5-.4.1-.2.2-.3.3-.6,0-.2,0-.4,0-.6,0-.2,0-.4-.2-.6l-.3-.4c-.2-.2-.4-.4-.7-.4h-.4c-.3,0-.6,0-.8.1l-.5.3c-.2.1-.4.2-.5.4-.1.2-.2.3-.3.6,0,.2,0,.4,0,.6,0,.2,0,.4.2.6l.3.4c.2.2.4.4.7.4h.4c.3,0,.6,0,.8-.1h0Z"/>
      <path class="st8" d="M185.1,673.4c-1-1.9-3.9-.3-2.9,1.6s3.9.3,2.9-1.6h0Z"/>
      <path class="st8" d="M111.4,679.3l1.7-.9c.2-.1.4-.2.5-.4.1-.2.2-.3.3-.6,0-.2,0-.4,0-.6,0-.2,0-.4-.2-.6-.2-.4-.6-.7-1-.8s-.9,0-1.3.1l-1.7.9c-.2.1-.4.2-.5.4-.1.2-.2.3-.3.6,0,.2,0,.4,0,.6,0,.2,0,.4.2.6.2.4.6.7,1,.8s.9,0,1.3-.1h0Z"/>
      <path class="st8" d="M170.8,625.1l-1.3.7c-.2.1-.4.2-.5.4-.1.2-.2.3-.3.6,0,.2,0,.4,0,.6,0,.2,0,.4.2.6l.3.4c.2.2.4.4.7.4h.4c.3,0,.6,0,.8-.1l1.3-.7c.2-.1.4-.2.5-.4.1-.2.2-.3.3-.6,0-.2,0-.4,0-.6,0-.2,0-.4-.2-.6l-.3-.4c-.2-.2-.4-.4-.7-.4h-.4c-.3,0-.6,0-.8.1h0Z"/>
      <path class="st8" d="M168.8,634.7c-1-1.9-3.9-.3-2.9,1.6s3.9.3,2.9-1.6h0Z"/>
    </g>
    <g id="banana_x5F_7">
      <path class="st6" d="M331.1,770.1c9.2,5.7,12.4,17,7.2,25.3-5.2,8.3-16.9,10.4-26.1,4.8s-.5-.3-.8-.5l-28.4,33.8c-3.5,5.6-11.4,7-17.6,3.2-6.2-3.8-8.4-11.4-4.9-17l21.3-36.7c-3-.3-6.1-1.3-8.9-3-9.2-5.7-12.4-17-7.2-25.3,5.2-8.3,16.9-10.5,26.1-4.8,3.7,2.3,6.5,5.5,8.1,9.1l12,9.9c5.7-2.7,12.9-2.4,19.1,1.4Z"/>
      <ellipse class="st4" cx="321.6" cy="785.1" rx="17.7" ry="19.5" transform="translate(-519.9 676.7) rotate(-60.4)"/>
      <ellipse class="st4" cx="282.5" cy="764.8" rx="17.7" ry="19.5" transform="translate(-522 632.4) rotate(-60.4)"/>
      <line class="st4" x1="264.7" y1="810.6" x2="288.4" y2="825.2"/>
      <path class="st8" d="M271.9,766.9c.2-.5.5-1,.9-1.4l-.3.3c.3-.3.6-.7.9-.9s.5-.8.5-1.2-.2-.9-.5-1.2-.7-.5-1.2-.5-.8.2-1.2.5c-.5.4-.9.9-1.3,1.4s-.6.8-.8,1.3c-.1.2-.2.4-.2.6,0,.2,0,.4,0,.6,0,.4.4.8.8,1s.8.3,1.3.2.8-.4,1-.8h0Z"/>
      <path class="st8" d="M283.4,762.5l.5-1.3c0-.2,0-.4,0-.6,0-.2,0-.4-.2-.6-.1-.2-.2-.4-.4-.5-.2-.2-.4-.3-.6-.3h-.4c-.3,0-.6,0-.8.1l-.3.3c-.2.2-.4.5-.5.8l-.5,1.3c0,.2,0,.4,0,.6,0,.2,0,.4.2.6.1.2.2.4.4.5.2.2.4.3.6.3h.4c.3,0,.6,0,.8-.1l.3-.3c.2-.2.4-.5.5-.8h0Z"/>
      <path class="st8" d="M283.7,771c-1.8-1.1-3.5,1.7-1.7,2.8s3.5-1.7,1.7-2.8h0Z"/>
      <path class="st8" d="M276.2,756.7l.3-.5c.1-.2.2-.4.2-.6,0-.2,0-.4,0-.6,0-.2-.1-.4-.3-.6-.1-.2-.3-.3-.5-.5l-.4-.2c-.3,0-.6,0-.8,0l-.4.2c-.3.1-.5.3-.6.6l-.3.5c-.1.2-.2.4-.2.6,0,.2,0,.4,0,.6,0,.2.1.4.3.6.1.2.3.3.5.5l.4.2c.3,0,.6,0,.8,0l.4-.2c.3-.1.5-.3.6-.6h0Z"/>
      <path class="st8" d="M319.1,788.7c0-.3-.1-.6-.2-.9v.4c0-.7,0-1.4,0-2.1v.4c0-.3,0-.5,0-.7,0-.4,0-.9-.1-1.2s-.6-.7-1-.8-.9,0-1.2.1-.7.6-.8,1c-.4,1.5-.4,3.1,0,4.7s.4.8.8,1,.9.3,1.3.2.8-.4,1-.8.3-.8.2-1.3h0Z"/>
      <path class="st8" d="M314.9,774.8c-1.8-1.1-3.5,1.7-1.7,2.8s3.5-1.7,1.7-2.8h0Z"/>
      <path class="st8" d="M331.6,787.4l.6-4.3c0-.4,0-.8-.1-1.2s-.6-.7-1-.8-.9,0-1.2.1-.7.6-.8,1l-.6,4.3c0,.4,0,.8.1,1.2s.6.7,1,.8.9,0,1.2-.1.7-.6.8-1h0Z"/>
      <path class="st8" d="M325,775c-1.8-1.1-3.5,1.7-1.7,2.8s3.5-1.7,1.7-2.8h0Z"/>
      <path class="st8" d="M311.1,787l.3-.5c.1-.2.2-.4.2-.6,0-.2,0-.4,0-.6,0-.2-.1-.4-.3-.6-.1-.2-.3-.3-.5-.5l-.4-.2c-.3,0-.6,0-.8,0l-.4.2c-.3.1-.5.3-.6.6l-.3.5c-.1.2-.2.4-.2.6,0,.2,0,.4,0,.6,0,.2.1.4.3.6.1.2.3.3.5.5l.4.2c.3,0,.6,0,.8,0l.4-.2c.3-.1.5-.3.6-.6h0Z"/>
      <path class="st8" d="M327.9,793.2c-1.8-1.1-3.5,1.7-1.7,2.8s3.5-1.7,1.7-2.8h0Z"/>
      <path class="st8" d="M267,835.1l1-1.6c.1-.2.2-.4.2-.6,0-.2,0-.4,0-.6,0-.2-.1-.4-.3-.6-.1-.2-.3-.3-.5-.5-.4-.2-.8-.3-1.3-.2s-.8.4-1,.8l-1,1.6c-.1.2-.2.4-.2.6,0,.2,0,.4,0,.6,0,.2.1.4.3.6.1.2.3.3.5.5.4.2.8.3,1.3.2s.8-.4,1-.8h0Z"/>
      <path class="st8" d="M291.3,758.5l-.8,1.2c-.1.2-.2.4-.2.6,0,.2,0,.4,0,.6,0,.2.1.4.3.6.1.2.3.3.5.5l.4.2c.3,0,.6,0,.8,0l.4-.2c.3-.1.5-.3.6-.6l.8-1.2c.1-.2.2-.4.2-.6,0-.2,0-.4,0-.6,0-.2-.1-.4-.3-.6-.1-.2-.3-.3-.5-.5l-.4-.2c-.3,0-.6,0-.8,0l-.4.2c-.3.1-.5.3-.6.6h0Z"/>
      <path class="st8" d="M294.4,767.7c-1.8-1.1-3.5,1.7-1.7,2.8s3.5-1.7,1.7-2.8h0Z"/>
    </g>
    <g id="banana_x5F_6">
      <path class="st6" d="M502.6,803.9c10.8.3,19.2,8.5,18.9,18.3-.4,9.8-9.4,17.5-20.2,17.2-.3,0-.6,0-.9,0l-7.7,43.4c-.2,6.6-6.3,11.8-13.6,11.6-7.3-.2-13-5.7-12.7-12.3v-42.5c-2.7,1.2-5.9,1.9-9.2,1.8-10.8-.3-19.2-8.5-18.9-18.3.4-9.8,9.4-17.5,20.2-17.2,4.4.1,8.3,1.5,11.5,3.8l15.4,2.6c3.6-5.2,10-8.6,17.2-8.4Z"/>
      <ellipse class="st4" cx="502" cy="821.6" rx="19.5" ry="17.7" transform="translate(-5.5 3.4) rotate(-.4)"/>
      <ellipse class="st4" cx="457.9" cy="823.6" rx="19.5" ry="17.7" transform="translate(-5.5 3.1) rotate(-.4)"/>
      <line class="st4" x1="465.4" y1="872.2" x2="493.3" y2="873"/>
      <path class="st8" d="M449.8,830.7c0-.6,0-1.1,0-1.7v.4c0-.4.1-.9.3-1.3s0-.9-.1-1.3-.6-.7-1-.8-.9,0-1.3.1-.6.6-.8,1c-.2.6-.3,1.2-.4,1.9s0,1,0,1.5c0,.2,0,.4.1.6,0,.2.2.4.3.5.3.3.8.5,1.2.5s.9-.1,1.2-.5.6-.7.5-1.2h0Z"/>
      <path class="st8" d="M457.5,821.1l-.3-1.4c0-.2-.1-.4-.3-.6-.1-.2-.3-.3-.5-.4-.2-.1-.4-.2-.6-.2-.2,0-.4,0-.7,0l-.4.2c-.3.1-.5.3-.6.6l-.2.4c0,.3,0,.6,0,.9l.3,1.4c0,.2.1.4.3.6.1.2.3.3.5.4.2.1.4.2.6.2.2,0,.4,0,.7,0l.4-.2c.3-.1.5-.3.6-.6l.2-.4c0-.3,0-.6,0-.9h0Z"/>
      <path class="st8" d="M462.1,828.4c-2.1,0-2.2,3.3,0,3.3s2.2-3.3,0-3.3h0Z"/>
      <path class="st8" d="M448.4,819.7v-.5c0-.2,0-.4-.1-.6,0-.2-.2-.4-.3-.5-.1-.2-.3-.3-.5-.4-.2-.1-.4-.2-.6-.2h-.4c-.3.1-.5.3-.7.5l-.3.3c-.2.3-.2.5-.2.8v.5c0,.2,0,.4.1.6,0,.2.2.4.3.5.1.2.3.3.5.4.2.1.4.2.6.2h.4c.3-.1.5-.3.7-.5l.3-.3c.2-.3.2-.5.2-.8h0Z"/>
      <path class="st8" d="M501.6,826c-.2-.2-.4-.5-.6-.7l.3.3c-.4-.6-.8-1.2-1.1-1.9l.2.4c0-.2-.2-.5-.2-.7-.1-.4-.4-.8-.7-1s-.9-.3-1.3-.2-.8.4-1,.7-.3.8-.2,1.3c.4,1.5,1.2,2.9,2.3,4.1s.7.5,1.2.5.9-.2,1.2-.5.5-.7.5-1.2-.2-.8-.5-1.2h0Z"/>
      <path class="st8" d="M491,816c-2.1,0-2.2,3.3,0,3.3s2.2-3.3,0-3.3h0Z"/>
      <path class="st8" d="M511.8,818.6l-1.6-4.1c-.2-.4-.3-.8-.7-1s-.9-.3-1.3-.2-.8.4-1,.7-.3.9-.2,1.3l1.6,4.1c.2.4.3.8.7,1s.9.3,1.3.2.8-.4,1-.7.3-.9.2-1.3h0Z"/>
      <path class="st8" d="M499.8,811.2c-2.1,0-2.2,3.3,0,3.3s2.2-3.3,0-3.3h0Z"/>
      <path class="st8" d="M493.7,828.5v-.5c0-.2,0-.4-.1-.6,0-.2-.2-.4-.3-.5-.1-.2-.3-.3-.5-.4-.2-.1-.4-.2-.6-.2h-.4c-.3.1-.5.3-.7.5l-.3.3c-.2.3-.2.5-.2.8v.5c0,.2,0,.4.1.6,0,.2.2.4.3.5.1.2.3.3.5.4.2.1.4.2.6.2h.4c.3-.1.5-.3.7-.5l.3-.3c.2-.3.2-.5.2-.8h0Z"/>
      <path class="st8" d="M511.4,825.5c-2.1,0-2.2,3.3,0,3.3s2.2-3.3,0-3.3h0Z"/>
      <path class="st8" d="M479.6,892.2v-1.9c0-.2,0-.4,0-.6,0-.2-.2-.4-.3-.5-.1-.2-.3-.3-.5-.4-.2-.1-.4-.2-.6-.2-.4,0-.9.1-1.2.5s-.5.7-.5,1.2v1.9c0,.2,0,.4,0,.6,0,.2.2.4.3.5.1.2.3.3.5.4.2.1.4.2.6.2.4,0,.9-.1,1.2-.5s.5-.7.5-1.2h0Z"/>
      <path class="st8" d="M462.4,813.8v1.4c0,.2,0,.4,0,.6,0,.2.2.4.3.5.1.2.3.3.5.4.2.1.4.2.6.2h.4c.3-.1.5-.3.7-.5l.3-.3c.2-.3.2-.5.2-.8v-1.4c0-.2,0-.4,0-.6,0-.2-.2-.4-.3-.5-.1-.2-.3-.3-.5-.4-.2-.1-.4-.2-.6-.2h-.4c-.3.1-.5.3-.7.5l-.3.3c-.2.3-.2.5-.2.8h0Z"/>
      <path class="st8" d="M469.7,820.2c-2.1,0-2.2,3.3,0,3.3s2.2-3.3,0-3.3h0Z"/>
    </g>
    <g id="banana_x5F_5">
      <path class="st6" d="M668.1,747.4c9.5-5.1,20.9-2.3,25.5,6.4,4.6,8.7.6,19.8-8.9,25-.3.1-.5.3-.8.4l15,41.5c3.1,5.8.4,13.4-6,16.8-6.4,3.5-14.1,1.5-17.2-4.3l-21.2-36.8c-1.8,2.5-4.2,4.6-7.1,6.2-9.5,5.1-20.9,2.3-25.5-6.4-4.6-8.7-.6-19.8,8.9-25,3.8-2.1,8-2.8,11.9-2.4l14.6-5.5c.5-6.3,4.4-12.4,10.7-15.8Z"/>
      <ellipse class="st4" cx="676.4" cy="763.1" rx="19.5" ry="17.7" transform="translate(-293 446.9) rotate(-30.4)"/>
      <ellipse class="st4" cx="639.2" cy="786.8" rx="19.5" ry="17.7" transform="translate(-310.2 431.3) rotate(-30.4)"/>
      <line class="st4" x1="670" y1="825.1" x2="694.5" y2="811.9"/>
      <path class="st8" d="M635.8,797c-.3-.5-.6-.9-.8-1.5l.2.4c-.2-.4-.3-.8-.4-1.3s-.4-.8-.8-1-.8-.3-1.2-.2-.8.4-1,.8-.3.8-.2,1.2c.1.6.3,1.2.6,1.8s.5.9.8,1.3c.1.2.2.4.4.5.2.1.3.2.6.3.4.1.9,0,1.3-.1s.7-.6.8-1,.1-.9-.1-1.3h0Z"/>
      <path class="st8" d="M637.7,784.8l-.9-1c-.1-.2-.3-.3-.5-.3-.2-.1-.4-.2-.6-.1-.2,0-.4,0-.6.1-.2,0-.4.2-.6.3l-.3.3c-.1.2-.2.5-.2.8v.4c.1.3.3.6.5.8l.9,1c.1.2.3.3.5.3.2.1.4.2.6.1.2,0,.4,0,.6-.1.2,0,.4-.2.6-.3l.3-.3c.1-.2.2-.5.2-.8v-.4c-.1-.3-.3-.6-.5-.8h0Z"/>
      <path class="st8" d="M645.3,788.9c-1.9,1-.3,3.9,1.6,2.9s.3-3.9-1.6-2.9h0Z"/>
      <path class="st8" d="M629.1,788.2l-.3-.5c-.1-.2-.2-.4-.4-.5-.2-.1-.3-.2-.6-.3-.2,0-.4,0-.6,0-.2,0-.4,0-.6.2l-.4.3c-.2.2-.4.4-.4.7v.4c0,.3,0,.6.1.8l.3.5c.1.2.2.4.4.5.2.1.3.2.6.3.2,0,.4,0,.6,0,.2,0,.4,0,.6-.2l.4-.3c.2-.2.4-.4.4-.7v-.4c0-.3,0-.6-.1-.8h0Z"/>
      <path class="st8" d="M678.2,767.1c-.3,0-.6-.2-.9-.3l.4.2c-.7-.3-1.3-.7-1.8-1.1l.3.3c-.2-.2-.4-.3-.6-.5-.3-.3-.7-.5-1.1-.5s-.9.2-1.2.5-.5.7-.5,1.1.1.9.5,1.2c1.1,1.1,2.5,1.9,4,2.4s.9,0,1.3-.1.7-.6.8-1,0-.9-.1-1.3-.6-.7-1-.8h0Z"/>
      <path class="st8" d="M664.1,763.7c-1.9,1-.3,3.9,1.6,2.9s.3-3.9-1.6-2.9h0Z"/>
      <path class="st8" d="M683.4,755.6c-1.1-.9-2.3-1.8-3.4-2.7s-.7-.5-1.1-.5-.9.2-1.2.5-.5.7-.5,1.1.1.9.5,1.2c1.1.9,2.3,1.8,3.4,2.7s.7.5,1.1.5.9-.2,1.2-.5.5-.7.5-1.1-.1-.9-.5-1.2h0Z"/>
      <path class="st8" d="M669.3,755.1c-1.9,1-.3,3.9,1.6,2.9s.3-3.9-1.6-2.9h0Z"/>
      <path class="st8" d="M672.7,773.2l-.3-.5c-.1-.2-.2-.4-.4-.5-.2-.1-.3-.2-.6-.3-.2,0-.4,0-.6,0-.2,0-.4,0-.6.2l-.4.3c-.2.2-.4.4-.4.7v.4c0,.3,0,.6.1.8l.3.5c.1.2.2.4.4.5.2.1.3.2.6.3.2,0,.4,0,.6,0,.2,0,.4,0,.6-.2l.4-.3c.2-.2.4-.4.4-.7v-.4c0-.3,0-.6-.1-.8h0Z"/>
      <path class="st8" d="M686.5,761.7c-1.9,1-.3,3.9,1.6,2.9s.3-3.9-1.6-2.9h0Z"/>
      <path class="st8" d="M692.3,835.4l-.9-1.7c-.1-.2-.2-.4-.4-.5-.2-.1-.3-.2-.6-.3-.2,0-.4,0-.6,0-.2,0-.4,0-.6.2-.4.2-.7.6-.8,1s0,.9.1,1.3l.9,1.7c.1.2.2.4.4.5.2.1.3.2.6.3.2,0,.4,0,.6,0,.2,0,.4,0,.6-.2.4-.2.7-.6.8-1s0-.9-.1-1.3h0Z"/>
      <path class="st8" d="M638.2,776l.7,1.3c.1.2.2.4.4.5.2.1.3.2.6.3.2,0,.4,0,.6,0,.2,0,.4,0,.6-.2l.4-.3c.2-.2.4-.4.4-.7v-.4c0-.3,0-.6-.1-.8l-.7-1.3c-.1-.2-.2-.4-.4-.5-.2-.1-.3-.2-.6-.3-.2,0-.4,0-.6,0-.2,0-.4,0-.6.2l-.4.3c-.2.2-.4.4-.4.7v.4c0,.3,0,.6.1.8h0Z"/>
      <path class="st8" d="M647.8,777.9c-1.9,1-.3,3.9,1.6,2.9s.3-3.9-1.6-2.9h0Z"/>
    </g>
    <g id="banana_x5F_4">
      <path class="st6" d="M783.2,615.7c5.7-9.2,17-12.4,25.3-7.2,8.3,5.2,10.4,16.9,4.8,26.1s-.3.5-.5.8l33.8,28.4c5.6,3.5,7,11.4,3.2,17.6-3.8,6.2-11.4,8.4-17,4.9l-36.7-21.3c-.3,3-1.3,6.1-3,8.9-5.7,9.2-17,12.4-25.3,7.2-8.3-5.2-10.5-16.9-4.8-26.1,2.3-3.7,5.5-6.5,9.1-8.1l9.9-12c-2.7-5.7-2.4-12.9,1.4-19.1Z"/>
      <ellipse class="st4" cx="798.2" cy="625.1" rx="19.5" ry="17.7" transform="translate(-139.7 1010.1) rotate(-60.4)"/>
      <ellipse class="st4" cx="777.9" cy="664.3" rx="19.5" ry="17.7" transform="translate(-184.1 1012.2) rotate(-60.4)"/>
      <line class="st4" x1="823.7" y1="682.1" x2="838.3" y2="658.4"/>
      <path class="st8" d="M780,674.9c-.5-.2-1-.5-1.4-.9l.3.3c-.3-.3-.7-.6-.9-.9s-.8-.5-1.2-.5-.9.2-1.2.5-.5.7-.5,1.2.2.8.5,1.2c.4.5.9.9,1.4,1.3s.8.6,1.3.8c.2.1.4.2.6.2.2,0,.4,0,.6,0,.4,0,.8-.4,1-.8s.3-.8.2-1.3-.4-.8-.8-1h0Z"/>
      <path class="st8" d="M775.5,663.4l-1.3-.5c-.2,0-.4,0-.6,0-.2,0-.4,0-.6.2-.2.1-.4.2-.5.4-.2.2-.3.4-.3.6v.4c0,.3,0,.6.1.8l.3.3c.2.2.5.4.8.5l1.3.5c.2,0,.4,0,.6,0,.2,0,.4,0,.6-.2.2-.1.4-.2.5-.4.2-.2.3-.4.3-.6v-.4c0-.3,0-.6-.1-.8l-.3-.3c-.2-.2-.5-.4-.8-.5h0Z"/>
      <path class="st8" d="M784.1,663c-1.1,1.8,1.7,3.5,2.8,1.7s-1.7-3.5-2.8-1.7h0Z"/>
      <path class="st8" d="M769.7,670.5l-.5-.3c-.2-.1-.4-.2-.6-.2-.2,0-.4,0-.6,0-.2,0-.4.1-.6.3-.2.1-.3.3-.5.5l-.2.4c0,.3,0,.6,0,.8l.2.4c.1.3.3.5.6.6l.5.3c.2.1.4.2.6.2.2,0,.4,0,.6,0,.2,0,.4-.1.6-.3.2-.1.3-.3.5-.5l.2-.4c0-.3,0-.6,0-.8l-.2-.4c-.1-.3-.3-.5-.6-.6h0Z"/>
      <path class="st8" d="M801.8,627.7c-.3,0-.6.1-.9.2h.4c-.7,0-1.4,0-2.1,0h.4c-.3,0-.5,0-.7,0-.4,0-.9,0-1.2.1s-.7.6-.8,1,0,.9.1,1.2.6.7,1,.8c1.5.4,3.1.4,4.7,0s.8-.4,1-.8.3-.9.2-1.3-.4-.8-.8-1-.8-.3-1.3-.2h0Z"/>
      <path class="st8" d="M787.9,631.8c-1.1,1.8,1.7,3.5,2.8,1.7s-1.7-3.5-2.8-1.7h0Z"/>
      <path class="st8" d="M800.5,615.2c-1.4-.2-2.9-.4-4.3-.6s-.8,0-1.2.1-.7.6-.8,1,0,.9.1,1.2.6.7,1,.8c1.4.2,2.9.4,4.3.6s.8,0,1.2-.1.7-.6.8-1,0-.9-.1-1.2-.6-.7-1-.8h0Z"/>
      <path class="st8" d="M788,621.8c-1.1,1.8,1.7,3.5,2.8,1.7s-1.7-3.5-2.8-1.7h0Z"/>
      <path class="st8" d="M800,635.7l-.5-.3c-.2-.1-.4-.2-.6-.2-.2,0-.4,0-.6,0-.2,0-.4.1-.6.3-.2.1-.3.3-.5.5l-.2.4c0,.3,0,.6,0,.8l.2.4c.1.3.3.5.6.6l.5.3c.2.1.4.2.6.2.2,0,.4,0,.6,0,.2,0,.4-.1.6-.3.2-.1.3-.3.5-.5l.2-.4c0-.3,0-.6,0-.8l-.2-.4c-.1-.3-.3-.5-.6-.6h0Z"/>
      <path class="st8" d="M806.3,618.9c-1.1,1.8,1.7,3.5,2.8,1.7s-1.7-3.5-2.8-1.7h0Z"/>
      <path class="st8" d="M848.1,679.8l-1.6-1c-.2-.1-.4-.2-.6-.2-.2,0-.4,0-.6,0-.2,0-.4.1-.6.3-.2.1-.3.3-.5.5-.2.4-.3.8-.2,1.3s.4.8.8,1l1.6,1c.2.1.4.2.6.2.2,0,.4,0,.6,0,.2,0,.4-.1.6-.3.2-.1.3-.3.5-.5.2-.4.3-.8.2-1.3s-.4-.8-.8-1h0Z"/>
      <path class="st8" d="M771.6,655.5l1.2.8c.2.1.4.2.6.2.2,0,.4,0,.6,0,.2,0,.4-.1.6-.3.2-.1.3-.3.5-.5l.2-.4c0-.3,0-.6,0-.8l-.2-.4c-.1-.3-.3-.5-.6-.6l-1.2-.8c-.2-.1-.4-.2-.6-.2-.2,0-.4,0-.6,0-.2,0-.4.1-.6.3-.2.1-.3.3-.5.5l-.2.4c0,.3,0,.6,0,.8l.2.4c.1.3.3.5.6.6h0Z"/>
      <path class="st8" d="M780.8,652.3c-1.1,1.8,1.7,3.5,2.8,1.7s-1.7-3.5-2.8-1.7h0Z"/>
    </g>
    <g id="banana_x5F_3">
      <path class="st6" d="M817,444.2c.3-10.8,8.5-19.2,18.3-18.9,9.8.4,17.5,9.4,17.2,20.2s0,.6,0,.9l43.4,7.7c6.6.2,11.8,6.3,11.6,13.6-.2,7.3-5.7,13-12.3,12.7h-42.5c1.2,2.7,1.9,5.9,1.8,9.2-.3,10.8-8.5,19.2-18.3,18.9-9.8-.4-17.5-9.4-17.2-20.2.1-4.4,1.5-8.3,3.8-11.5l2.6-15.4c-5.2-3.6-8.6-10-8.4-17.2Z"/>
      <ellipse class="st4" cx="834.7" cy="444.8" rx="17.7" ry="19.5" transform="translate(-2.9 5.6) rotate(-.4)"/>
      <ellipse class="st4" cx="836.7" cy="488.9" rx="17.7" ry="19.5" transform="translate(-3.2 5.6) rotate(-.4)"/>
      <line class="st4" x1="885.3" y1="481.4" x2="886.1" y2="453.5"/>
      <path class="st8" d="M843.8,497c-.6,0-1.1,0-1.7,0h.4c-.4,0-.9-.1-1.3-.3s-.9,0-1.3.1-.7.6-.8,1,0,.9.1,1.3.6.6,1,.8c.6.2,1.2.3,1.9.4s1,0,1.5,0c.2,0,.4,0,.6-.1.2,0,.4-.2.5-.3.3-.3.5-.8.5-1.2s-.1-.9-.5-1.2-.7-.6-1.2-.5h0Z"/>
      <path class="st8" d="M834.2,489.2l-1.4.3c-.2,0-.4.1-.6.3-.2.1-.3.3-.4.5-.1.2-.2.4-.2.6,0,.2,0,.4,0,.7l.2.4c.1.3.3.5.6.6l.4.2c.3,0,.6,0,.9,0l1.4-.3c.2,0,.4-.1.6-.3.2-.1.3-.3.4-.5.1-.2.2-.4.2-.6,0-.2,0-.4,0-.7l-.2-.4c-.1-.3-.3-.5-.6-.6l-.4-.2c-.3,0-.6,0-.9,0h0Z"/>
      <path class="st8" d="M841.5,484.7c0,2.1,3.3,2.2,3.3,0s-3.3-2.2-3.3,0h0Z"/>
      <path class="st8" d="M832.8,498.4h-.5c-.2,0-.4,0-.6.1-.2,0-.4.2-.5.3-.2.1-.3.3-.4.5-.1.2-.2.4-.2.6v.4c.1.3.3.5.5.7l.3.3c.3.2.5.2.8.2h.5c.2,0,.4,0,.6-.1.2,0,.4-.2.5-.3.2-.1.3-.3.4-.5.1-.2.2-.4.2-.6v-.4c-.1-.3-.3-.5-.5-.7l-.3-.3c-.3-.2-.5-.2-.8-.2h0Z"/>
      <path class="st8" d="M839.1,445.2c-.2.2-.5.4-.7.6l.3-.3c-.6.4-1.2.8-1.9,1.1l.4-.2c-.2,0-.5.2-.7.2-.4.1-.8.4-1,.7s-.3.9-.2,1.3.4.8.7,1,.8.3,1.3.2c1.5-.4,2.9-1.2,4.1-2.3s.5-.7.5-1.2-.2-.9-.5-1.2-.7-.5-1.2-.5-.8.2-1.2.5h0Z"/>
      <path class="st8" d="M829.1,455.8c0,2.1,3.3,2.2,3.3,0s-3.3-2.2-3.3,0h0Z"/>
      <path class="st8" d="M831.7,435l-4.1,1.6c-.4.2-.8.3-1,.7s-.3.9-.2,1.3.4.8.7,1,.9.3,1.3.2l4.1-1.6c.4-.2.8-.3,1-.7s.3-.9.2-1.3-.4-.8-.7-1-.9-.3-1.3-.2h0Z"/>
      <path class="st8" d="M824.3,447c0,2.1,3.3,2.2,3.3,0s-3.3-2.2-3.3,0h0Z"/>
      <path class="st8" d="M841.6,453.1h-.5c-.2,0-.4,0-.6.1-.2,0-.4.2-.5.3-.2.1-.3.3-.4.5-.1.2-.2.4-.2.6v.4c.1.3.3.5.5.7l.3.3c.3.2.5.2.8.2h.5c.2,0,.4,0,.6-.1.2,0,.4-.2.5-.3.2-.1.3-.3.4-.5.1-.2.2-.4.2-.6v-.4c-.1-.3-.3-.5-.5-.7l-.3-.3c-.3-.2-.5-.2-.8-.2h0Z"/>
      <path class="st8" d="M838.6,435.4c0,2.1,3.3,2.2,3.3,0s-3.3-2.2-3.3,0h0Z"/>
      <path class="st8" d="M905.3,467.2h-1.9c-.2,0-.4,0-.6,0-.2,0-.4.2-.5.3-.2.1-.3.3-.4.5-.1.2-.2.4-.2.6,0,.4.1.9.5,1.2s.7.5,1.2.5h1.9c.2,0,.4,0,.6,0,.2,0,.4-.2.5-.3.2-.1.3-.3.4-.5.1-.2.2-.4.2-.6,0-.4-.1-.9-.5-1.2s-.7-.5-1.2-.5h0Z"/>
      <path class="st8" d="M826.8,484.4h1.4c.2,0,.4,0,.6,0,.2,0,.4-.2.5-.3.2-.1.3-.3.4-.5.1-.2.2-.4.2-.6v-.4c-.1-.3-.3-.5-.5-.7l-.3-.3c-.3-.2-.5-.2-.8-.2h-1.4c-.2,0-.4,0-.6,0-.2,0-.4.2-.5.3-.2.1-.3.3-.4.5-.1.2-.2.4-.2.6v.4c.1.3.3.5.5.7l.3.3c.3.2.5.2.8.2h0Z"/>
      <path class="st8" d="M833.3,477.1c0,2.1,3.3,2.2,3.3,0s-3.3-2.2-3.3,0h0Z"/>
    </g>
    <g id="banana_x5F_2">
      <path class="st6" d="M760.5,278.7c-5.1-9.5-2.3-20.9,6.4-25.5,8.7-4.6,19.8-.6,25,8.9.1.3.3.5.4.8l41.5-15c5.8-3.1,13.4-.4,16.8,6,3.5,6.4,1.5,14.1-4.3,17.2l-36.8,21.2c2.5,1.8,4.6,4.2,6.2,7.1,5.1,9.5,2.3,20.9-6.4,25.5-8.7,4.6-19.8.6-25-8.9-2.1-3.8-2.8-8-2.4-11.9l-5.5-14.6c-6.3-.5-12.4-4.4-15.8-10.7Z"/>
      <ellipse class="st4" cx="776.2" cy="270.4" rx="17.7" ry="19.5" transform="translate(-30.2 429.7) rotate(-30.4)"/>
      <ellipse class="st4" cx="799.9" cy="307.6" rx="17.7" ry="19.5" transform="translate(-45.7 446.8) rotate(-30.4)"/>
      <line class="st4" x1="838.2" y1="276.8" x2="825" y2="252.3"/>
      <path class="st8" d="M810.1,311c-.5.3-.9.6-1.5.8l.4-.2c-.4.2-.8.3-1.3.4s-.8.4-1,.8-.3.8-.2,1.2.4.8.8,1,.8.3,1.2.2c.6-.1,1.2-.3,1.8-.6s.9-.5,1.3-.8c.2-.1.4-.2.5-.4.1-.2.2-.3.3-.6.1-.4,0-.9-.1-1.3s-.6-.7-1-.8-.9-.1-1.3.1h0Z"/>
      <path class="st8" d="M797.9,309.1l-1,.9c-.2.1-.3.3-.3.5-.1.2-.2.4-.1.6,0,.2,0,.4.1.6,0,.2.2.4.3.6l.3.3c.2.1.5.2.8.2h.4c.3-.1.6-.3.8-.5l1-.9c.2-.1.3-.3.3-.5.1-.2.2-.4.1-.6,0-.2,0-.4-.1-.6,0-.2-.2-.4-.3-.6l-.3-.3c-.2-.1-.5-.2-.8-.2h-.4c-.3.1-.6.3-.8.5h0Z"/>
      <path class="st8" d="M801.9,301.5c1,1.9,3.9.3,2.9-1.6s-3.9-.3-2.9,1.6h0Z"/>
      <path class="st8" d="M801.2,317.7l-.5.3c-.2.1-.4.2-.5.4-.1.2-.2.3-.3.6,0,.2,0,.4,0,.6,0,.2,0,.4.2.6l.3.4c.2.2.4.4.7.4h.4c.3,0,.6,0,.8-.1l.5-.3c.2-.1.4-.2.5-.4.1-.2.2-.3.3-.6,0-.2,0-.4,0-.6,0-.2,0-.4-.2-.6l-.3-.4c-.2-.2-.4-.4-.7-.4h-.4c-.3,0-.6,0-.8.1h0Z"/>
      <path class="st8" d="M780.1,268.6c0,.3-.2.6-.3.9l.2-.4c-.3.7-.7,1.3-1.1,1.8l.3-.3c-.2.2-.3.4-.5.6-.3.3-.5.7-.5,1.1s.2.9.5,1.2.7.5,1.1.5.9-.1,1.2-.5c1.1-1.1,1.9-2.5,2.4-4s0-.9-.1-1.3-.6-.7-1-.8-.9,0-1.3.1-.7.6-.8,1h0Z"/>
      <path class="st8" d="M776.8,282.7c1,1.9,3.9.3,2.9-1.6s-3.9-.3-2.9,1.6h0Z"/>
      <path class="st8" d="M768.7,263.4l-2.7,3.4c-.3.4-.5.7-.5,1.1s.2.9.5,1.2.7.5,1.1.5.9-.1,1.2-.5l2.7-3.4c.3-.4.5-.7.5-1.1s-.2-.9-.5-1.2-.7-.5-1.1-.5-.9.1-1.2.5h0Z"/>
      <path class="st8" d="M768.2,277.5c1,1.9,3.9.3,2.9-1.6s-3.9-.3-2.9,1.6h0Z"/>
      <path class="st8" d="M786.2,274.1l-.5.3c-.2.1-.4.2-.5.4-.1.2-.2.3-.3.6,0,.2,0,.4,0,.6,0,.2,0,.4.2.6l.3.4c.2.2.4.4.7.4h.4c.3,0,.6,0,.8-.1l.5-.3c.2-.1.4-.2.5-.4.1-.2.2-.3.3-.6,0-.2,0-.4,0-.6,0-.2,0-.4-.2-.6l-.3-.4c-.2-.2-.4-.4-.7-.4h-.4c-.3,0-.6,0-.8.1h0Z"/>
      <path class="st8" d="M774.8,260.3c1,1.9,3.9.3,2.9-1.6s-3.9-.3-2.9,1.6h0Z"/>
      <path class="st8" d="M848.5,254.5l-1.7.9c-.2.1-.4.2-.5.4-.1.2-.2.3-.3.6,0,.2,0,.4,0,.6,0,.2,0,.4.2.6.2.4.6.7,1,.8s.9,0,1.3-.1l1.7-.9c.2-.1.4-.2.5-.4.1-.2.2-.3.3-.6,0-.2,0-.4,0-.6,0-.2,0-.4-.2-.6-.2-.4-.6-.7-1-.8s-.9,0-1.3.1h0Z"/>
      <path class="st8" d="M789.1,308.6l1.3-.7c.2-.1.4-.2.5-.4.1-.2.2-.3.3-.6,0-.2,0-.4,0-.6,0-.2,0-.4-.2-.6l-.3-.4c-.2-.2-.4-.4-.7-.4h-.4c-.3,0-.6,0-.8.1l-1.3.7c-.2.1-.4.2-.5.4-.1.2-.2.3-.3.6,0,.2,0,.4,0,.6,0,.2,0,.4.2.6l.3.4c.2.2.4.4.7.4h.4c.3,0,.6,0,.8-.1h0Z"/>
      <path class="st8" d="M791,299c1,1.9,3.9.3,2.9-1.6s-3.9-.3-2.9,1.6h0Z"/>
    </g>
    <g id="banana_x5F_1">
      <path class="st6" d="M628.8,163.6c-9.2-5.7-12.4-17-7.2-25.3,5.2-8.3,16.9-10.4,26.1-4.8s.5.3.8.5l28.4-33.8c3.5-5.6,11.4-7,17.6-3.2,6.2,3.8,8.4,11.4,4.9,17l-21.3,36.7c3,.3,6.1,1.3,8.9,3,9.2,5.7,12.4,17,7.2,25.3-5.2,8.3-16.9,10.5-26.1,4.8-3.7-2.3-6.5-5.5-8.1-9.1l-12-9.9c-5.7,2.7-12.9,2.4-19.1-1.4Z"/>
      <ellipse class="st4" cx="638.2" cy="148.6" rx="17.7" ry="19.5" transform="translate(193.6 630) rotate(-60.4)"/>
      <ellipse class="st4" cx="677.4" cy="168.9" rx="17.7" ry="19.5" transform="translate(195.8 674.3) rotate(-60.4)"/>
      <line class="st4" x1="695.2" y1="123.1" x2="671.5" y2="108.5"/>
      <path class="st8" d="M688,166.8c-.2.5-.5,1-.9,1.4l.3-.3c-.3.3-.6.7-.9.9s-.5.8-.5,1.2.2.9.5,1.2.7.5,1.2.5.8-.2,1.2-.5c.5-.4.9-.9,1.3-1.4s.6-.8.8-1.3c.1-.2.2-.4.2-.6,0-.2,0-.4,0-.6,0-.4-.4-.8-.8-1s-.8-.3-1.3-.2-.8.4-1,.8h0Z"/>
      <path class="st8" d="M676.4,171.3l-.5,1.3c0,.2,0,.4,0,.6,0,.2,0,.4.2.6.1.2.2.4.4.5.2.2.4.3.6.3h.4c.3,0,.6,0,.8-.1l.3-.3c.2-.2.4-.5.5-.8l.5-1.3c0-.2,0-.4,0-.6,0-.2,0-.4-.2-.6-.1-.2-.2-.4-.4-.5-.2-.2-.4-.3-.6-.3h-.4c-.3,0-.6,0-.8.1l-.3.3c-.2.2-.4.5-.5.8h0Z"/>
      <path class="st8" d="M676.1,162.7c1.8,1.1,3.5-1.7,1.7-2.8s-3.5,1.7-1.7,2.8h0Z"/>
      <path class="st8" d="M683.6,177l-.3.5c-.1.2-.2.4-.2.6,0,.2,0,.4,0,.6,0,.2.1.4.3.6.1.2.3.3.5.5l.4.2c.3,0,.6,0,.8,0l.4-.2c.3-.1.5-.3.6-.6l.3-.5c.1-.2.2-.4.2-.6,0-.2,0-.4,0-.6,0-.2-.1-.4-.3-.6-.1-.2-.3-.3-.5-.5l-.4-.2c-.3,0-.6,0-.8,0l-.4.2c-.3.1-.5.3-.6.6h0Z"/>
      <path class="st8" d="M640.8,145c0,.3.1.6.2.9v-.4c0,.7,0,1.4,0,2.1v-.4c0,.3,0,.5,0,.7,0,.4,0,.9.1,1.2s.6.7,1,.8.9,0,1.2-.1.7-.6.8-1c.4-1.5.4-3.1,0-4.7s-.4-.8-.8-1-.9-.3-1.3-.2-.8.4-1,.8-.3.8-.2,1.3h0Z"/>
      <path class="st8" d="M644.9,158.9c1.8,1.1,3.5-1.7,1.7-2.8s-3.5,1.7-1.7,2.8h0Z"/>
      <path class="st8" d="M628.3,146.3c-.2,1.4-.4,2.9-.6,4.3s0,.8.1,1.2.6.7,1,.8.9,0,1.2-.1.7-.6.8-1l.6-4.3c0-.4,0-.8-.1-1.2s-.6-.7-1-.8-.9,0-1.2.1-.7.6-.8,1h0Z"/>
      <path class="st8" d="M634.9,158.7c1.8,1.1,3.5-1.7,1.7-2.8s-3.5,1.7-1.7,2.8h0Z"/>
      <path class="st8" d="M648.8,146.8l-.3.5c-.1.2-.2.4-.2.6,0,.2,0,.4,0,.6,0,.2.1.4.3.6.1.2.3.3.5.5l.4.2c.3,0,.6,0,.8,0l.4-.2c.3-.1.5-.3.6-.6l.3-.5c.1-.2.2-.4.2-.6,0-.2,0-.4,0-.6,0-.2-.1-.4-.3-.6-.1-.2-.3-.3-.5-.5l-.4-.2c-.3,0-.6,0-.8,0l-.4.2c-.3.1-.5.3-.6.6h0Z"/>
      <path class="st8" d="M632,140.5c1.8,1.1,3.5-1.7,1.7-2.8s-3.5,1.7-1.7,2.8h0Z"/>
      <path class="st8" d="M692.9,98.6l-1,1.6c-.1.2-.2.4-.2.6,0,.2,0,.4,0,.6,0,.2.1.4.3.6.1.2.3.3.5.5.4.2.8.3,1.3.2s.8-.4,1-.8l1-1.6c.1-.2.2-.4.2-.6,0-.2,0-.4,0-.6,0-.2-.1-.4-.3-.6-.1-.2-.3-.3-.5-.5-.4-.2-.8-.3-1.3-.2s-.8.4-1,.8h0Z"/>
      <path class="st8" d="M668.6,175.2l.8-1.2c.1-.2.2-.4.2-.6,0-.2,0-.4,0-.6,0-.2-.1-.4-.3-.6-.1-.2-.3-.3-.5-.5l-.4-.2c-.3,0-.6,0-.8,0l-.4.2c-.3.1-.5.3-.6.6l-.8,1.2c-.1.2-.2.4-.2.6,0,.2,0,.4,0,.6,0,.2.1.4.3.6.1.2.3.3.5.5l.4.2c.3,0,.6,0,.8,0l.4-.2c.3-.1.5-.3.6-.6h0Z"/>
      <path class="st8" d="M665.4,166c1.8,1.1,3.5-1.7,1.7-2.8s-3.5,1.7-1.7,2.8h0Z"/>
    </g>
  </g>
</svg>